<svg width="25" height="24" viewBox="0 0 25 24" fill="none" xmlns="http://www.w3.org/2000/svg">
<rect x="0.5" width="24" height="24" rx="12" fill="#5865F2"/>
<mask id="mask0_810_188320" style="mask-type:luminance" maskUnits="userSpaceOnUse" x="4" y="6" width="17" height="12">
<path d="M20.1098 6.08783H4.89024V17.8776H20.1098V6.08783Z" fill="white"/>
</mask>
<g mask="url(#mask0_810_188320)">
<path d="M17.7742 7.13771C16.8042 6.69262 15.7639 6.36469 14.6763 6.17687C14.6565 6.17325 14.6367 6.18231 14.6265 6.20043C14.4927 6.43837 14.3446 6.74878 14.2408 6.99276C13.071 6.81763 11.9072 6.81763 10.7614 6.99276C10.6576 6.74336 10.504 6.43837 10.3696 6.20043C10.3594 6.18291 10.3396 6.17385 10.3198 6.17687C9.23282 6.36409 8.1926 6.69202 7.22196 7.13771C7.21356 7.14134 7.20635 7.14738 7.20157 7.15523C5.22849 10.103 4.68798 12.9783 4.95314 15.8179C4.95434 15.8318 4.96214 15.8451 4.97293 15.8535C6.27472 16.8095 7.53572 17.3899 8.7733 17.7746C8.79311 17.7806 8.81409 17.7734 8.8267 17.7571C9.11945 17.3573 9.38041 16.9358 9.60416 16.4925C9.61736 16.4665 9.60476 16.4357 9.57777 16.4254C9.16384 16.2684 8.7697 16.077 8.39056 15.8596C8.36057 15.8421 8.35817 15.7992 8.38576 15.7786C8.46554 15.7188 8.54535 15.6566 8.62153 15.5938C8.63532 15.5824 8.65452 15.5799 8.67073 15.5872C11.1615 16.7244 13.8581 16.7244 16.3194 15.5872C16.3356 15.5793 16.3548 15.5818 16.3692 15.5932C16.4454 15.656 16.5252 15.7188 16.6056 15.7786C16.6332 15.7992 16.6314 15.8421 16.6014 15.8596C16.2223 16.0812 15.8281 16.2684 15.4136 16.4248C15.3866 16.4351 15.3746 16.4665 15.3878 16.4925C15.6164 16.9351 15.8773 17.3567 16.1647 17.7565C16.1767 17.7734 16.1983 17.7806 16.2181 17.7746C17.4616 17.3899 18.7226 16.8095 20.0244 15.8535C20.0358 15.8451 20.043 15.8324 20.0442 15.8185C20.3616 12.5356 19.5127 9.68385 17.794 7.15583C17.7898 7.14738 17.7826 7.14134 17.7742 7.13771ZM9.97611 14.0889C9.22622 14.0889 8.60833 13.4004 8.60833 12.5549C8.60833 11.7094 9.21424 11.0209 9.97611 11.0209C10.744 11.0209 11.3559 11.7154 11.3439 12.5549C11.3439 13.4004 10.738 14.0889 9.97611 14.0889ZM15.0333 14.0889C14.2834 14.0889 13.6655 13.4004 13.6655 12.5549C13.6655 11.7094 14.2714 11.0209 15.0333 11.0209C15.8011 11.0209 16.413 11.7154 16.401 12.5549C16.401 13.4004 15.8011 14.0889 15.0333 14.0889Z" fill="white"/>
</g>
</svg>
