<svg width="19" height="18" viewBox="0 0 19 18" fill="none" xmlns="http://www.w3.org/2000/svg">
<g id="receipt" clip-path="url(#clip0_810_231330)">
<path id="Vector" d="M14 12.75H5V11.25H14V12.75ZM14 9.75H5V8.25H14V9.75ZM14 6.75H5V5.25H14V6.75ZM2.75 16.5L3.875 15.375L5 16.5L6.125 15.375L7.25 16.5L8.375 15.375L9.5 16.5L10.625 15.375L11.75 16.5L12.875 15.375L14 16.5L15.125 15.375L16.25 16.5V1.5L15.125 2.625L14 1.5L12.875 2.625L11.75 1.5L10.625 2.625L9.5 1.5L8.375 2.625L7.25 1.5L6.125 2.625L5 1.5L3.875 2.625L2.75 1.5V16.5Z" fill="url(#paint0_linear_810_231330)"/>
</g>
<defs>
<linearGradient id="paint0_linear_810_231330" x1="9.5" y1="1.5" x2="9.5" y2="16.5" gradientUnits="userSpaceOnUse">
<stop stop-color="#BAD2DC"/>
<stop offset="1" stop-color="#BB86FC"/>
</linearGradient>
<clipPath id="clip0_810_231330">
<rect width="18" height="18" fill="white" transform="translate(0.5)"/>
</clipPath>
</defs>
</svg>
