<svg width="18" height="18" viewBox="0 0 18 18" fill="none" xmlns="http://www.w3.org/2000/svg">
<g opacity="0.5">
<g opacity="0.6" clip-path="url(#clip0_1138_32481)">
<path d="M15 6H12.75V4.6575C12.75 2.7 11.3175 0.952498 9.3675 0.764998C7.1325 0.554998 5.25 2.31 5.25 4.5V6H3V16.5H15V6ZM9 12.75C8.175 12.75 7.5 12.075 7.5 11.25C7.5 10.425 8.175 9.75 9 9.75C9.825 9.75 10.5 10.425 10.5 11.25C10.5 12.075 9.825 12.75 9 12.75ZM6.75 6V4.5C6.75 3.255 7.755 2.25 9 2.25C10.245 2.25 11.25 3.255 11.25 4.5V6H6.75Z" fill="white"/>
</g>
</g>
<defs>
<clipPath id="clip0_1138_32481">
<rect width="18" height="18" fill="white"/>
</clipPath>
</defs>
</svg>
