<svg width="38" height="38" viewBox="0 0 38 38" fill="none" xmlns="http://www.w3.org/2000/svg">
<g id="coupon">
<path id="Vector" d="M17.4258 33.25C17.4258 32.6201 17.1756 32.016 16.7302 31.5706C16.2848 31.1252 15.6807 30.875 15.0508 30.875C14.4209 30.875 13.8168 31.1252 13.3714 31.5706C12.926 32.016 12.6758 32.6201 12.6758 33.25H4.75911C4.33919 33.25 3.93646 33.0832 3.63953 32.7863C3.3426 32.4893 3.17578 32.0866 3.17578 31.6667V6.33333C3.17578 5.91341 3.3426 5.51068 3.63953 5.21375C3.93646 4.91681 4.33919 4.75 4.75911 4.75H12.6758C12.6758 5.37989 12.926 5.98398 13.3714 6.42938C13.8168 6.87478 14.4209 7.125 15.0508 7.125C15.6807 7.125 16.2848 6.87478 16.7302 6.42938C17.1756 5.98398 17.4258 5.37989 17.4258 4.75H33.2591C33.679 4.75 34.0818 4.91681 34.3787 5.21375C34.6756 5.51068 34.8424 5.91341 34.8424 6.33333V15.0417C33.7926 15.0417 32.7858 15.4587 32.0435 16.201C31.3011 16.9434 30.8841 17.9502 30.8841 19C30.8841 20.0498 31.3011 21.0566 32.0435 21.799C32.7858 22.5413 33.7926 22.9583 34.8424 22.9583V31.6667C34.8424 32.0866 34.6756 32.4893 34.3787 32.7863C34.0818 33.0832 33.679 33.25 33.2591 33.25H17.4258ZM15.0508 16.625C15.6807 16.625 16.2848 16.3748 16.7302 15.9294C17.1756 15.484 17.4258 14.8799 17.4258 14.25C17.4258 13.6201 17.1756 13.016 16.7302 12.5706C16.2848 12.1252 15.6807 11.875 15.0508 11.875C14.4209 11.875 13.8168 12.1252 13.3714 12.5706C12.926 13.016 12.6758 13.6201 12.6758 14.25C12.6758 14.8799 12.926 15.484 13.3714 15.9294C13.8168 16.3748 14.4209 16.625 15.0508 16.625ZM15.0508 26.125C15.6807 26.125 16.2848 25.8748 16.7302 25.4294C17.1756 24.984 17.4258 24.3799 17.4258 23.75C17.4258 23.1201 17.1756 22.516 16.7302 22.0706C16.2848 21.6252 15.6807 21.375 15.0508 21.375C14.4209 21.375 13.8168 21.6252 13.3714 22.0706C12.926 22.516 12.6758 23.1201 12.6758 23.75C12.6758 24.3799 12.926 24.984 13.3714 25.4294C13.8168 25.8748 14.4209 26.125 15.0508 26.125Z" fill="url(#paint0_linear_976_119360)"/>
</g>
<defs>
<linearGradient id="paint0_linear_976_119360" x1="19.0091" y1="4.75" x2="19.0091" y2="33.25" gradientUnits="userSpaceOnUse">
<stop stop-color="#BAD2DC"/>
<stop offset="1" stop-color="#FFCD08"/>
</linearGradient>
</defs>
</svg>
