<svg width="16" height="17" viewBox="0 0 16 17" fill="none" xmlns="http://www.w3.org/2000/svg">
<g id="notifications_active" opacity="0.8" clip-path="url(#clip0_362_9074)">
<path id="Vector" d="M5.05333 3.52001L4.1 2.56667C2.5 3.78667 1.44667 5.66667 1.35333 7.80001H2.68667C2.78667 6.03334 3.69333 4.48667 5.05333 3.52001ZM13.3133 7.80001H14.6467C14.5467 5.66667 13.4933 3.78667 11.9 2.56667L10.9533 3.52001C12.3 4.48667 13.2133 6.03334 13.3133 7.80001ZM12 8.13334C12 6.08667 10.9067 4.37334 9 3.92001V2.46667H7V3.92001C5.08667 4.37334 4 6.08001 4 8.13334V11.4667L2.66667 12.8V13.4667H13.3333V12.8L12 11.4667V8.13334ZM8 15.4667C8.09333 15.4667 8.18 15.46 8.26667 15.44C8.7 15.3467 9.05333 15.0533 9.22667 14.6533C9.29333 14.4933 9.32667 14.32 9.32667 14.1333H6.66C6.66667 14.8667 7.26 15.4667 8 15.4667Z" fill="white"/>
</g>
<defs>
<clipPath id="clip0_362_9074">
<rect width="16" height="16" fill="white" transform="translate(0 0.799988)"/>
</clipPath>
</defs>
</svg>
