<svg width="20" height="20" viewBox="0 0 20 20" fill="none" xmlns="http://www.w3.org/2000/svg">
<g id="attach_file" clip-path="url(#clip0_1138_39223)">
<path id="Vector" d="M13.7499 4.99998V14.5833C13.7499 16.425 12.2583 17.9166 10.4166 17.9166C8.57492 17.9166 7.08325 16.425 7.08325 14.5833V4.16665C7.08325 3.01665 8.01659 2.08331 9.16658 2.08331C10.3166 2.08331 11.2499 3.01665 11.2499 4.16665V12.9166C11.2499 13.375 10.8749 13.75 10.4166 13.75C9.95825 13.75 9.58325 13.375 9.58325 12.9166V4.99998H8.33325V12.9166C8.33325 14.0666 9.26658 15 10.4166 15C11.5666 15 12.4999 14.0666 12.4999 12.9166V4.16665C12.4999 2.32498 11.0083 0.833313 9.16658 0.833313C7.32492 0.833313 5.83325 2.32498 5.83325 4.16665V14.5833C5.83325 17.1166 7.88325 19.1666 10.4166 19.1666C12.9499 19.1666 14.9999 17.1166 14.9999 14.5833V4.99998H13.7499Z" fill="white" fill-opacity="0.6"/>
</g>
<defs>
<clipPath id="clip0_1138_39223">
<rect width="20" height="20" fill="white"/>
</clipPath>
</defs>
</svg>
