<svg width="17" height="17" viewBox="0 0 17 17" fill="none" xmlns="http://www.w3.org/2000/svg">
<g id="exit_to_app" clip-path="url(#clip0_1138_26870)">
<path id="Vector" d="M7.22667 11.1934L8.16667 12.1334L11.5 8.80005L8.16667 5.46672L7.22667 6.40672L8.94667 8.13338H2.5V9.46672H8.94667L7.22667 11.1934ZM13.1667 2.80005H3.83333C3.09333 2.80005 2.5 3.40005 2.5 4.13338V6.80005H3.83333V4.13338H13.1667V13.4667H3.83333V10.8H2.5V13.4667C2.5 14.2 3.09333 14.8 3.83333 14.8H13.1667C13.9 14.8 14.5 14.2 14.5 13.4667V4.13338C14.5 3.40005 13.9 2.80005 13.1667 2.80005Z" fill="#686879"/>
</g>
<defs>
<clipPath id="clip0_1138_26870">
<rect width="16" height="16" fill="white" transform="translate(0.5 0.800049)"/>
</clipPath>
</defs>
</svg>
