<svg width="18" height="18" viewBox="0 0 18 18" fill="none" xmlns="http://www.w3.org/2000/svg">
<g id="list_alt" opacity="0.4" clip-path="url(#clip0_940_161884)">
<path id="Vector" d="M8.25 5.25H12.75V6.75H8.25V5.25ZM8.25 8.25H12.75V9.75H8.25V8.25ZM8.25 11.25H12.75V12.75H8.25V11.25ZM5.25 5.25H6.75V6.75H5.25V5.25ZM5.25 8.25H6.75V9.75H5.25V8.25ZM5.25 11.25H6.75V12.75H5.25V11.25ZM15.075 2.25H2.925C2.55 2.25 2.25 2.55 2.25 2.925V15.075C2.25 15.375 2.55 15.75 2.925 15.75H15.075C15.375 15.75 15.75 15.375 15.75 15.075V2.925C15.75 2.55 15.375 2.25 15.075 2.25ZM14.25 14.25H3.75V3.75H14.25V14.25Z" fill="white"/>
</g>
<defs>
<clipPath id="clip0_940_161884">
<rect width="18" height="18" fill="white"/>
</clipPath>
</defs>
</svg>
