<svg width="24" height="24" viewBox="0 0 24 24" fill="none" xmlns="http://www.w3.org/2000/svg">
<g id="bank">
<path id="Vector" d="M0.974405 6.50327C0.974405 6.50327 0.970757 5.81695 1.94633 5.92034C1.94633 5.92034 2.27176 5.9623 3.30425 6.02449C3.30425 6.02449 3.96387 6.08668 7.19631 6.56545C7.19631 6.56545 11.4233 7.10642 13.8144 6.94008C13.8144 6.94008 16.3391 6.88764 18.7397 6.13913C18.7397 6.13913 21.6628 5.19282 22.1283 4.9568C22.1283 4.9568 22.3064 4.83917 22.5391 4.99876C22.5391 4.99876 22.6413 5.10965 22.9091 5.0055C22.9091 5.0055 23.2184 4.9568 23.1229 5.32094C23.1229 5.32094 22.1633 7.21132 16.5018 8.75104C16.5018 8.75104 13.4511 9.45834 8.43967 9.8532C8.43967 9.8532 6.70889 10.0195 4.71908 10.3732C4.71908 10.3732 3.58152 10.592 3.34219 10.1447C3.34219 10.1447 3.2269 9.91613 2.69132 9.70784C2.69132 9.70784 0.855469 8.62891 0.855469 7.30422C0.855469 7.30422 1.04956 6.83219 0.973676 6.50327H0.974405Z" fill="#007662"/>
<path id="Vector_2" d="M7.90358 16.6859C7.90358 16.6859 6.71275 14.1385 8.54642 11.7716C8.54642 11.7716 10.5501 9.4661 13.487 11.1317C13.487 11.1317 15.9205 12.332 15.525 15.9127C15.525 15.9127 15.1915 19.949 12.6224 22.5474C12.6224 22.5474 12.4553 22.7767 12.3196 22.6523C12.2729 22.6096 12.3086 22.6253 12.2356 22.6111C12.2356 22.6111 11.6045 22.9063 11.9022 22.0716C11.9022 22.0716 13.641 16.0318 12.5202 14.346C12.5202 14.346 11.8475 13.1929 10.7143 13.9999C10.7143 13.9999 10.0189 14.5453 10.2699 16.0521C10.2699 16.0521 10.6654 17.2524 9.7387 17.6195C9.7387 17.6195 8.6763 18.0953 7.90358 16.6867V16.6859Z" fill="#007662"/>
<path id="Vector_3" d="M9.51172 3.77107C9.51172 3.77107 9.5212 1.79828 11.5709 1.75782C11.5709 1.75782 11.6788 1.76831 11.7876 1.72785C11.7876 1.72785 12.8908 1.59598 12.9302 2.14219C12.9302 2.14219 12.901 2.49659 12.8616 2.61797C12.8616 2.61797 12.8514 2.83001 13.0878 2.9926C13.0878 2.9926 13.8861 3.93291 12.7332 5.23812C12.7332 5.23812 11.5322 6.35077 10.1524 5.23812C10.1524 5.23812 9.53215 4.7024 9.51172 3.77107Z" fill="#CE0F41"/>
</g>
</svg>
