<svg width="17" height="16" viewBox="0 0 17 16" fill="none" xmlns="http://www.w3.org/2000/svg">
<g id="Icon">
<path id="Vector" d="M9.49852 2.84473V2.29274H9.69444C10.0863 2.29274 10.4074 1.97656 10.4074 1.59071C10.4074 1.20486 10.0863 0.888672 9.69444 0.888672H7.31077C6.91893 0.888672 6.59784 1.20486 6.59784 1.59071C6.59784 1.97656 6.91893 2.29274 7.31077 2.29274H7.58832V2.82865C4.33934 3.26809 1.83594 6.00657 1.83594 9.32383C1.83594 12.9519 4.81825 15.8887 8.5026 15.8887C12.187 15.8887 15.1693 12.9519 15.1693 9.32383C15.1693 6.03337 12.704 3.31097 9.49308 2.83937H9.49852V2.84473ZM8.50805 15.0205C5.31893 15.0205 2.72845 12.475 2.72845 9.32919C2.72845 6.18342 5.31349 3.63787 8.50805 3.63787C11.7026 3.63787 14.2876 6.18342 14.2876 9.32919C14.2876 12.475 11.7026 15.0205 8.50805 15.0205Z" fill="#686879"/>
<path id="Vector_2" d="M8.50501 4.64062V8.39196C7.97712 8.39196 7.55263 8.80997 7.55263 9.3298C7.55263 9.5388 7.62337 9.72637 7.73766 9.88178L5.01657 11.8325L4.57031 12.1165C5.46283 13.2687 6.88868 14.0243 8.50501 14.0243C11.2152 14.0243 13.4084 11.9236 13.4084 9.33516C13.4084 6.74673 11.2098 4.64598 8.50501 4.64598V4.64062Z" fill="#686879"/>
</g>
</svg>
