<svg width="20" height="18" viewBox="0 0 20 18" fill="none" xmlns="http://www.w3.org/2000/svg">
<g id="Group 732">
<path id="Vector" d="M9.14309 2.30505L4.09082 5.4546" stroke="#38384B" stroke-width="0.886364" stroke-miterlimit="10"/>
<path id="Vector_2" d="M15.3182 5.4546L10.8273 2.30505" stroke="#38384B" stroke-width="0.886364" stroke-miterlimit="10"/>
<path id="Vector_3" d="M0.54541 6.04547V16.0909C0.54541 16.7409 1.07723 17.2727 1.72723 17.2727H18.2727C18.9227 17.2727 19.4545 16.7409 19.4545 16.0909V6.04547C19.4545 5.39547 18.9227 4.86365 18.2727 4.86365H1.72723C1.07723 4.86365 0.54541 5.39547 0.54541 6.04547ZM17.6818 16.0909H2.31814C1.99314 16.0909 1.72723 15.825 1.72723 15.5V6.63637C1.72723 6.31137 1.99314 6.04547 2.31814 6.04547H17.6818C18.0068 6.04547 18.2727 6.31137 18.2727 6.63637V15.5C18.2727 15.825 18.0068 16.0909 17.6818 16.0909Z" fill="#38384B"/>
<path id="Vector_4" d="M9.99993 3.09093C10.6526 3.09093 11.1818 2.56181 11.1818 1.90911C11.1818 1.25641 10.6526 0.727295 9.99993 0.727295C9.34723 0.727295 8.81812 1.25641 8.81812 1.90911C8.81812 2.56181 9.34723 3.09093 9.99993 3.09093Z" fill="#38384B"/>
<path id="Vector_5" d="M16.5 7.81824H3.5V8.40915H16.5V7.81824Z" stroke="#38384B" stroke-width="0.590909" stroke-miterlimit="10"/>
<path id="Vector_6" d="M16.5 10.7727H3.5V11.3636H16.5V10.7727Z" stroke="#38384B" stroke-width="0.590909" stroke-miterlimit="10"/>
<path id="Vector_7" d="M16.5 13.7273H3.5V14.3182H16.5V13.7273Z" stroke="#38384B" stroke-width="0.590909" stroke-miterlimit="10"/>
</g>
</svg>
