<svg width="14" height="14" viewBox="0 0 14 14" fill="none" xmlns="http://www.w3.org/2000/svg">
<g id="reaction/like" clip-path="url(#clip0_1138_30177)">
<path id="Vector" d="M7.65337 1.20167L4.42171 4.43334C4.20587 4.64917 4.08337 4.94667 4.08337 5.25584V11.0833C4.08337 11.725 4.60837 12.25 5.25004 12.25H10.5C10.9667 12.25 11.3867 11.97 11.5734 11.5442L13.475 7.105C13.965 5.95 13.1192 4.66667 11.865 4.66667H8.56921L9.12337 1.995C9.18171 1.70334 9.09421 1.40584 8.88421 1.19584C8.54004 0.857502 7.99171 0.857502 7.65337 1.20167ZM1.75004 12.25C2.39171 12.25 2.91671 11.725 2.91671 11.0833V6.41667C2.91671 5.775 2.39171 5.25 1.75004 5.25C1.10837 5.25 0.583374 5.775 0.583374 6.41667V11.0833C0.583374 11.725 1.10837 12.25 1.75004 12.25Z" fill="#686879"/>
</g>
<defs>
<clipPath id="clip0_1138_30177">
<rect width="14" height="14" fill="white"/>
</clipPath>
</defs>
</svg>
