<svg width="26" height="26" viewBox="0 0 26 26" fill="none" xmlns="http://www.w3.org/2000/svg">
<path d="M12.8751 7.35689C12.7983 7.28598 12.6801 7.28598 12.6033 7.35689L5.80197 13.9987C5.63651 14.1583 5.54788 14.3651 5.54788 14.5778V20.3923C5.54788 20.8769 5.41787 21.2728 5.98515 21.2728H9.22333C9.7906 21.2728 9.6606 20.8769 9.6606 20.3923V15.9901C9.6606 15.4701 10.1215 15.6414 10.6888 15.6414H14.7956C15.3629 15.6414 15.8238 15.4701 15.8238 15.9901V20.3923C15.8238 20.8769 15.6938 21.2728 16.2611 21.2728H19.4992C20.0665 21.2728 19.9365 20.8769 19.9365 20.3923V14.5778C19.9365 14.3651 19.8479 14.1583 19.6824 13.9987L12.8811 7.35689H12.8751Z" fill="#38384B"/>
<path d="M21.7802 12.5628L13.2356 4.33147C12.9638 4.07147 12.5206 4.07147 12.2488 4.33147L8.12427 8.32011V5.76738C8.12427 5.42466 7.89381 5.15284 7.61017 5.15284H6.58199C6.29836 5.15284 6.0679 5.43057 6.0679 5.76738V10.3056L4.21836 12.096C4.10608 12.2024 4.11199 12.3797 4.21836 12.4801L4.84472 13.0533C4.95108 13.1537 5.11654 13.1478 5.2229 13.0474L12.6034 5.86193C12.6802 5.79102 12.7984 5.79102 12.8752 5.86193L20.7697 13.5142C20.8702 13.6147 21.0415 13.6147 21.1479 13.5142L21.7743 12.941C21.8865 12.8347 21.8924 12.6633 21.7743 12.551L21.7802 12.5628Z" fill="#38384B"/>
</svg>
