<svg width="19" height="18" viewBox="0 0 19 18" fill="none" xmlns="http://www.w3.org/2000/svg">
<g id="coupon">
<path id="Vector" d="M8.75391 15.75C8.75391 15.4516 8.63538 15.1655 8.4244 14.9545C8.21342 14.7435 7.92727 14.625 7.62891 14.625C7.33054 14.625 7.04439 14.7435 6.83341 14.9545C6.62243 15.1655 6.50391 15.4516 6.50391 15.75H2.75391C2.55499 15.75 2.36423 15.671 2.22358 15.5303C2.08292 15.3897 2.00391 15.1989 2.00391 15V3C2.00391 2.80109 2.08292 2.61032 2.22358 2.46967C2.36423 2.32902 2.55499 2.25 2.75391 2.25H6.50391C6.50391 2.54837 6.62243 2.83452 6.83341 3.0455C7.04439 3.25647 7.33054 3.375 7.62891 3.375C7.92727 3.375 8.21342 3.25647 8.4244 3.0455C8.63538 2.83452 8.75391 2.54837 8.75391 2.25H16.2539C16.4528 2.25 16.6436 2.32902 16.7842 2.46967C16.9249 2.61032 17.0039 2.80109 17.0039 3V7.125C16.5066 7.125 16.0297 7.32254 15.6781 7.67417C15.3264 8.02581 15.1289 8.50272 15.1289 9C15.1289 9.49728 15.3264 9.97419 15.6781 10.3258C16.0297 10.6775 16.5066 10.875 17.0039 10.875V15C17.0039 15.1989 16.9249 15.3897 16.7842 15.5303C16.6436 15.671 16.4528 15.75 16.2539 15.75H8.75391ZM7.62891 7.875C7.92727 7.875 8.21342 7.75647 8.4244 7.5455C8.63538 7.33452 8.75391 7.04837 8.75391 6.75C8.75391 6.45163 8.63538 6.16548 8.4244 5.9545C8.21342 5.74353 7.92727 5.625 7.62891 5.625C7.33054 5.625 7.04439 5.74353 6.83341 5.9545C6.62243 6.16548 6.50391 6.45163 6.50391 6.75C6.50391 7.04837 6.62243 7.33452 6.83341 7.5455C7.04439 7.75647 7.33054 7.875 7.62891 7.875ZM7.62891 12.375C7.92727 12.375 8.21342 12.2565 8.4244 12.0455C8.63538 11.8345 8.75391 11.5484 8.75391 11.25C8.75391 10.9516 8.63538 10.6655 8.4244 10.4545C8.21342 10.2435 7.92727 10.125 7.62891 10.125C7.33054 10.125 7.04439 10.2435 6.83341 10.4545C6.62243 10.6655 6.50391 10.9516 6.50391 11.25C6.50391 11.5484 6.62243 11.8345 6.83341 12.0455C7.04439 12.2565 7.33054 12.375 7.62891 12.375Z" fill="url(#paint0_linear_976_92092)"/>
</g>
<defs>
<linearGradient id="paint0_linear_976_92092" x1="9.50391" y1="2.25" x2="9.50391" y2="15.75" gradientUnits="userSpaceOnUse">
<stop stop-color="#BAD2DC"/>
<stop offset="1" stop-color="#FFCD08"/>
</linearGradient>
</defs>
</svg>
