<svg width="38" height="30" viewBox="0 0 38 30" fill="none" xmlns="http://www.w3.org/2000/svg">
<g id="icon-empty">
<g id="Group 727">
<path id="Vector" d="M37.7194 5.75H29.6094L32.0494 1H34.3294C36.2094 1 37.7294 2.52 37.7294 4.4V5.75H37.7194Z" fill="#7F39FB"/>
<path id="Vector_2" d="M30.9392 1H14.0192C10.8092 1 8.19922 3.61 8.19922 6.82V29.56H27.5392C29.4192 29.56 30.9392 28.04 30.9392 26.16V4.4C30.9392 2.52 32.4592 1 34.3392 1H30.9392Z" fill="url(#paint0_linear_1138_25761)"/>
<path id="Vector_3" d="M23.74 29.5602H22.36H6.82C3.61 29.5602 1 26.9502 1 23.7402H23.74V26.1602C23.74 28.0402 25.26 29.5602 27.14 29.5602H23.74Z" fill="#7F39FB"/>
</g>
<path id="Vector_4" d="M22.1584 15.7432H21.6024L21.4053 15.5532C22.2499 14.5677 22.6864 13.2233 22.447 11.7944C22.1162 9.83759 20.4832 8.27496 18.5123 8.03563C15.5348 7.66961 13.029 10.1755 13.395 13.1529C13.6343 15.1238 15.197 16.7568 17.1538 17.0877C18.5827 17.327 19.9271 16.8906 20.9126 16.0459L21.1026 16.243V16.7991L24.0941 19.7906C24.3827 20.0792 24.8543 20.0792 25.1429 19.7906C25.4315 19.502 25.4315 19.0304 25.1429 18.7418L22.1584 15.7432ZM17.9351 15.7432C16.1824 15.7432 14.7676 14.3284 14.7676 12.5757C14.7676 10.823 16.1824 9.40822 17.9351 9.40822C19.6878 9.40822 21.1026 10.823 21.1026 12.5757C21.1026 14.3284 19.6878 15.7432 17.9351 15.7432Z" fill="white" fill-opacity="0.22"/>
</g>
<defs>
<linearGradient id="paint0_linear_1138_25761" x1="21.2692" y1="1" x2="21.2692" y2="29.56" gradientUnits="userSpaceOnUse">
<stop stop-color="#985EFF"/>
<stop offset="1" stop-color="#985EFF" stop-opacity="0.3"/>
</linearGradient>
</defs>
</svg>
