<svg width="26" height="26" viewBox="0 0 26 26" fill="none" xmlns="http://www.w3.org/2000/svg">
<path d="M12.1431 6.30493L7.09082 9.45448" stroke="url(#paint0_linear_173_25453)" stroke-width="0.886364" stroke-miterlimit="10"/>
<path d="M18.3182 9.45448L13.8273 6.30493" stroke="url(#paint1_linear_173_25453)" stroke-width="0.886364" stroke-miterlimit="10"/>
<path d="M3.54541 10.0456V20.091C3.54541 20.741 4.07723 21.2729 4.72723 21.2729H21.2727C21.9227 21.2729 22.4545 20.741 22.4545 20.091V10.0456C22.4545 9.39559 21.9227 8.86377 21.2727 8.86377H4.72723C4.07723 8.86377 3.54541 9.39559 3.54541 10.0456ZM20.6818 20.091H5.31814C4.99314 20.091 4.72723 19.8251 4.72723 19.5001V10.6365C4.72723 10.3115 4.99314 10.0456 5.31814 10.0456H20.6818C21.0068 10.0456 21.2727 10.3115 21.2727 10.6365V19.5001C21.2727 19.8251 21.0068 20.091 20.6818 20.091Z" fill="url(#paint2_linear_173_25453)"/>
<path d="M12.9999 7.09093C13.6526 7.09093 14.1818 6.56181 14.1818 5.90911C14.1818 5.25641 13.6526 4.72729 12.9999 4.72729C12.3472 4.72729 11.8181 5.25641 11.8181 5.90911C11.8181 6.56181 12.3472 7.09093 12.9999 7.09093Z" fill="url(#paint3_linear_173_25453)"/>
<path d="M19.5 11.8181H6.5V12.409H19.5V11.8181Z" stroke="url(#paint4_linear_173_25453)" stroke-width="0.590909" stroke-miterlimit="10"/>
<path d="M19.5 14.7727H6.5V15.3636H19.5V14.7727Z" stroke="url(#paint5_linear_173_25453)" stroke-width="0.590909" stroke-miterlimit="10"/>
<path d="M19.5 17.7273H6.5V18.3182H19.5V17.7273Z" stroke="url(#paint6_linear_173_25453)" stroke-width="0.590909" stroke-miterlimit="10"/>
<defs>
<linearGradient id="paint0_linear_173_25453" x1="9.61696" y1="6.30493" x2="9.61696" y2="9.45448" gradientUnits="userSpaceOnUse">
<stop stop-color="#9747FF"/>
<stop offset="1" stop-color="#BB86FC"/>
</linearGradient>
<linearGradient id="paint1_linear_173_25453" x1="16.0727" y1="6.30493" x2="16.0727" y2="9.45448" gradientUnits="userSpaceOnUse">
<stop stop-color="#9747FF"/>
<stop offset="1" stop-color="#BB86FC"/>
</linearGradient>
<linearGradient id="paint2_linear_173_25453" x1="13" y1="8.86377" x2="13" y2="21.2729" gradientUnits="userSpaceOnUse">
<stop stop-color="#9747FF"/>
<stop offset="1" stop-color="#BB86FC"/>
</linearGradient>
<linearGradient id="paint3_linear_173_25453" x1="12.9999" y1="4.72729" x2="12.9999" y2="7.09093" gradientUnits="userSpaceOnUse">
<stop stop-color="#9747FF"/>
<stop offset="1" stop-color="#BB86FC"/>
</linearGradient>
<linearGradient id="paint4_linear_173_25453" x1="13" y1="11.8181" x2="13" y2="12.409" gradientUnits="userSpaceOnUse">
<stop stop-color="#9747FF"/>
<stop offset="1" stop-color="#BB86FC"/>
</linearGradient>
<linearGradient id="paint5_linear_173_25453" x1="13" y1="14.7727" x2="13" y2="15.3636" gradientUnits="userSpaceOnUse">
<stop stop-color="#9747FF"/>
<stop offset="1" stop-color="#BB86FC"/>
</linearGradient>
<linearGradient id="paint6_linear_173_25453" x1="13" y1="17.7273" x2="13" y2="18.3182" gradientUnits="userSpaceOnUse">
<stop stop-color="#9747FF"/>
<stop offset="1" stop-color="#BB86FC"/>
</linearGradient>
</defs>
</svg>
