<svg width="20" height="20" viewBox="0 0 20 20" fill="none" xmlns="http://www.w3.org/2000/svg">
<g id="camera_alt" clip-path="url(#clip0_1138_32167)">
<path id="Vector" d="M10 12.5C11.3807 12.5 12.5 11.3807 12.5 10C12.5 8.61929 11.3807 7.5 10 7.5C8.61929 7.5 7.5 8.61929 7.5 10C7.5 11.3807 8.61929 12.5 10 12.5Z" fill="white"/>
<path id="Vector_2" d="M16.6665 3.33335H14.0248L12.9915 2.20835C12.6832 1.86669 12.2332 1.66669 11.7665 1.66669H8.23317C7.7665 1.66669 7.3165 1.86669 6.99984 2.20835L5.97484 3.33335H3.33317C2.4165 3.33335 1.6665 4.08335 1.6665 5.00002V15C1.6665 15.9167 2.4165 16.6667 3.33317 16.6667H16.6665C17.5832 16.6667 18.3332 15.9167 18.3332 15V5.00002C18.3332 4.08335 17.5832 3.33335 16.6665 3.33335ZM9.99984 14.1667C7.69984 14.1667 5.83317 12.3 5.83317 10C5.83317 7.70002 7.69984 5.83335 9.99984 5.83335C12.2998 5.83335 14.1665 7.70002 14.1665 10C14.1665 12.3 12.2998 14.1667 9.99984 14.1667Z" fill="white"/>
</g>
<defs>
<clipPath id="clip0_1138_32167">
<rect width="20" height="20" fill="white"/>
</clipPath>
</defs>
</svg>
