<svg width="26" height="26" viewBox="0 0 26 26" fill="none" xmlns="http://www.w3.org/2000/svg">
<g id="type=chat, state=on">
<path id="Vector" d="M17.751 5.31812H3.52186C3.20868 5.31812 2.95459 5.58402 2.95459 5.90902V14.7727C2.95459 15.0977 3.20868 15.3636 3.52186 15.3636H6.36414V18.909C7.30959 17.7272 8.26095 16.5454 9.20641 15.3636H17.7391C18.0523 15.3636 18.3064 15.0977 18.3064 14.7727V5.90902C18.3064 5.58402 18.0523 5.31812 17.7391 5.31812H17.751Z" fill="url(#paint0_linear_173_25449)"/>
<path id="Vector_2" d="M22.4546 8.86353H19.5V15.9544C19.5 16.2794 19.2341 16.5453 18.9091 16.5453H10.0455C9.38958 17.3313 8.73367 18.1231 8.07776 18.909H16.5455C17.5323 20.0908 18.5132 21.2726 19.5 22.4544V18.909H22.4546C22.7796 18.909 23.0455 18.6431 23.0455 18.3181V9.45443C23.0455 9.12943 22.7796 8.86353 22.4546 8.86353Z" fill="url(#paint1_linear_173_25449)"/>
</g>
<defs>
<linearGradient id="paint0_linear_173_25449" x1="10.6305" y1="5.31812" x2="10.6305" y2="18.909" gradientUnits="userSpaceOnUse">
<stop stop-color="#9747FF"/>
<stop offset="1" stop-color="#BB86FC"/>
</linearGradient>
<linearGradient id="paint1_linear_173_25449" x1="15.5616" y1="8.86353" x2="15.5616" y2="22.4544" gradientUnits="userSpaceOnUse">
<stop stop-color="#9747FF"/>
<stop offset="1" stop-color="#BB86FC"/>
</linearGradient>
</defs>
</svg>
