<svg width="17" height="16" viewBox="0 0 17 16" fill="none" xmlns="http://www.w3.org/2000/svg">
<g id="coin/icon">
<path id="Vector" d="M7.26773 1.23145H6.65234V1.84683H7.26773V1.23145Z" fill="#29FF47"/>
<path id="Vector_2" d="M7.88492 1.23145H7.26953V1.84683H7.88492V1.23145Z" fill="#29FF47"/>
<path id="Vector_3" d="M8.4982 1.23145H7.88281V1.84683H8.4982V1.23145Z" fill="#29FF47"/>
<path id="Vector_4" d="M9.11538 1.23145H8.5V1.84683H9.11538V1.23145Z" fill="#29FF47"/>
<path id="Vector_5" d="M9.73257 1.23145H9.11719V1.84683H9.73257V1.23145Z" fill="#29FF47"/>
<path id="Vector_6" d="M10.3459 1.23145H9.73047V1.84683H10.3459V1.23145Z" fill="#29FF47"/>
<path id="Vector_7" d="M6.04117 1.8457H5.42578V2.46109H6.04117V1.8457Z" fill="#29FF47"/>
<path id="Vector_8" d="M6.65445 1.8457H6.03906V2.46109H6.65445V1.8457Z" fill="#29FF47"/>
<path id="Vector_9" d="M10.963 1.8457H10.3477V2.46109H10.963V1.8457Z" fill="#29FF47"/>
<path id="Vector_10" d="M11.5763 1.8457H10.9609V2.46109H11.5763V1.8457Z" fill="#29FF47"/>
<path id="Vector_11" d="M4.80679 2.46191H4.19141V3.0773H4.80679V2.46191Z" fill="#29FF47"/>
<path id="Vector_12" d="M5.42398 2.46191H4.80859V3.0773H5.42398V2.46191Z" fill="#29FF47"/>
<path id="Vector_13" d="M7.26773 2.46191H6.65234V3.0773H7.26773V2.46191Z" fill="#29FF47"/>
<path id="Vector_14" d="M7.88492 2.46191H7.26953V3.0773H7.88492V2.46191Z" fill="#29FF47"/>
<path id="Vector_15" d="M8.4982 2.46191H7.88281V3.0773H8.4982V2.46191Z" fill="#29FF47"/>
<path id="Vector_16" d="M9.11538 2.46191H8.5V3.0773H9.11538V2.46191Z" fill="#29FF47"/>
<path id="Vector_17" d="M9.73257 2.46191H9.11719V3.0773H9.73257V2.46191Z" fill="#29FF47"/>
<path id="Vector_18" d="M10.3459 2.46191H9.73047V3.0773H10.3459V2.46191Z" fill="#29FF47"/>
<path id="Vector_19" d="M12.1896 2.46191H11.5742V3.0773H12.1896V2.46191Z" fill="#29FF47"/>
<path id="Vector_20" d="M12.8068 2.46191H12.1914V3.0773H12.8068V2.46191Z" fill="#29FF47"/>
<path id="Vector_21" d="M4.1896 3.07715H3.57422V3.69253H4.1896V3.07715Z" fill="#29FF47"/>
<path id="Vector_22" d="M6.04117 3.07715H5.42578V3.69253H6.04117V3.07715Z" fill="#29FF47"/>
<path id="Vector_23" d="M6.65445 3.07715H6.03906V3.69253H6.65445V3.07715Z" fill="#29FF47"/>
<path id="Vector_24" d="M7.26773 3.07715H6.65234V3.69253H7.26773V3.07715Z" fill="#29FF47"/>
<path id="Vector_25" d="M7.88492 3.07715H7.26953V3.69253H7.88492V3.07715Z" fill="#29FF47"/>
<path id="Vector_26" d="M8.4982 3.07715H7.88281V3.69253H8.4982V3.07715Z" fill="#29FF47"/>
<path id="Vector_27" d="M9.11538 3.07715H8.5V3.69253H9.11538V3.07715Z" fill="#29FF47"/>
<path id="Vector_28" d="M9.73257 3.07715H9.11719V3.69253H9.73257V3.07715Z" fill="#29FF47"/>
<path id="Vector_29" d="M10.3459 3.07715H9.73047V3.69253H10.3459V3.07715Z" fill="#29FF47"/>
<path id="Vector_30" d="M10.963 3.07715H10.3477V3.69253H10.963V3.07715Z" fill="#29FF47"/>
<path id="Vector_31" d="M11.5763 3.07715H10.9609V3.69253H11.5763V3.07715Z" fill="#29FF47"/>
<path id="Vector_32" d="M13.424 3.07715H12.8086V3.69253H13.424V3.07715Z" fill="#29FF47"/>
<path id="Vector_33" d="M3.57632 3.69238H2.96094V4.30777H3.57632V3.69238Z" fill="#29FF47"/>
<path id="Vector_34" d="M4.80679 3.69238H4.19141V4.30777H4.80679V3.69238Z" fill="#29FF47"/>
<path id="Vector_35" d="M5.42398 3.69238H4.80859V4.30777H5.42398V3.69238Z" fill="#29FF47"/>
<path id="Vector_36" d="M6.04117 3.69238H5.42578V4.30777H6.04117V3.69238Z" fill="#29FF47"/>
<path id="Vector_37" d="M6.65445 3.69238H6.03906V4.30777H6.65445V3.69238Z" fill="#29FF47"/>
<path id="Vector_38" d="M7.26773 3.69238H6.65234V4.30777H7.26773V3.69238Z" fill="#29FF47"/>
<path id="Vector_39" d="M7.88492 3.69238H7.26953V4.30777H7.88492V3.69238Z" fill="#29FF47"/>
<path id="Vector_40" d="M9.73257 3.69238H9.11719V4.30777H9.73257V3.69238Z" fill="#29FF47"/>
<path id="Vector_41" d="M10.3459 3.69238H9.73047V4.30777H10.3459V3.69238Z" fill="#29FF47"/>
<path id="Vector_42" d="M10.963 3.69238H10.3477V4.30777H10.963V3.69238Z" fill="#29FF47"/>
<path id="Vector_43" d="M11.5763 3.69238H10.9609V4.30777H11.5763V3.69238Z" fill="#29FF47"/>
<path id="Vector_44" d="M12.1896 3.69238H11.5742V4.30777H12.1896V3.69238Z" fill="#29FF47"/>
<path id="Vector_45" d="M12.8068 3.69238H12.1914V4.30777H12.8068V3.69238Z" fill="#29FF47"/>
<path id="Vector_46" d="M14.0412 3.69238H13.4258V4.30777H14.0412V3.69238Z" fill="#29FF47"/>
<path id="Vector_47" d="M3.57632 4.30762H2.96094V4.923H3.57632V4.30762Z" fill="#29FF47"/>
<path id="Vector_48" d="M4.80679 4.30762H4.19141V4.923H4.80679V4.30762Z" fill="#29FF47"/>
<path id="Vector_49" d="M5.42398 4.30762H4.80859V4.923H5.42398V4.30762Z" fill="#29FF47"/>
<path id="Vector_50" d="M6.04117 4.30762H5.42578V4.923H6.04117V4.30762Z" fill="#29FF47"/>
<path id="Vector_51" d="M6.65445 4.30762H6.03906V4.923H6.65445V4.30762Z" fill="#29FF47"/>
<path id="Vector_52" d="M7.26773 4.30762H6.65234V4.923H7.26773V4.30762Z" fill="#29FF47"/>
<path id="Vector_53" d="M7.88492 4.30762H7.26953V4.923H7.88492V4.30762Z" fill="#29FF47"/>
<path id="Vector_54" d="M9.73257 4.30762H9.11719V4.923H9.73257V4.30762Z" fill="#29FF47"/>
<path id="Vector_55" d="M10.3459 4.30762H9.73047V4.923H10.3459V4.30762Z" fill="#29FF47"/>
<path id="Vector_56" d="M10.963 4.30762H10.3477V4.923H10.963V4.30762Z" fill="#29FF47"/>
<path id="Vector_57" d="M11.5763 4.30762H10.9609V4.923H11.5763V4.30762Z" fill="#29FF47"/>
<path id="Vector_58" d="M12.1896 4.30762H11.5742V4.923H12.1896V4.30762Z" fill="#29FF47"/>
<path id="Vector_59" d="M12.8068 4.30762H12.1914V4.923H12.8068V4.30762Z" fill="#29FF47"/>
<path id="Vector_60" d="M14.0412 4.30762H13.4258V4.923H14.0412V4.30762Z" fill="#29FF47"/>
<path id="Vector_61" d="M2.96304 4.92285H2.34766V5.53824H2.96304V4.92285Z" fill="#29FF47"/>
<path id="Vector_62" d="M4.1896 4.92285H3.57422V5.53824H4.1896V4.92285Z" fill="#29FF47"/>
<path id="Vector_63" d="M4.80679 4.92285H4.19141V5.53824H4.80679V4.92285Z" fill="#29FF47"/>
<path id="Vector_64" d="M5.42398 4.92285H4.80859V5.53824H5.42398V4.92285Z" fill="#29FF47"/>
<path id="Vector_65" d="M6.04117 4.92285H5.42578V5.53824H6.04117V4.92285Z" fill="#29FF47"/>
<path id="Vector_66" d="M6.65445 4.92285H6.03906V5.53824H6.65445V4.92285Z" fill="#29FF47"/>
<path id="Vector_67" d="M10.963 4.92285H10.3477V5.53824H10.963V4.92285Z" fill="#29FF47"/>
<path id="Vector_68" d="M11.5763 4.92285H10.9609V5.53824H11.5763V4.92285Z" fill="#29FF47"/>
<path id="Vector_69" d="M12.1896 4.92285H11.5742V5.53824H12.1896V4.92285Z" fill="#29FF47"/>
<path id="Vector_70" d="M12.8068 4.92285H12.1914V5.53824H12.8068V4.92285Z" fill="#29FF47"/>
<path id="Vector_71" d="M13.424 4.92285H12.8086V5.53824H13.424V4.92285Z" fill="#29FF47"/>
<path id="Vector_72" d="M14.6544 4.92285H14.0391V5.53824H14.6544V4.92285Z" fill="#29FF47"/>
<path id="Vector_73" d="M2.96304 5.53809H2.34766V6.15347H2.96304V5.53809Z" fill="#29FF47"/>
<path id="Vector_74" d="M4.1896 5.53809H3.57422V6.15347H4.1896V5.53809Z" fill="#29FF47"/>
<path id="Vector_75" d="M4.80679 5.53809H4.19141V6.15347H4.80679V5.53809Z" fill="#29FF47"/>
<path id="Vector_76" d="M5.42398 5.53809H4.80859V6.15347H5.42398V5.53809Z" fill="#29FF47"/>
<path id="Vector_77" d="M6.04117 5.53809H5.42578V6.15347H6.04117V5.53809Z" fill="#29FF47"/>
<path id="Vector_78" d="M7.88492 5.53809H7.26953V6.15347H7.88492V5.53809Z" fill="#29FF47"/>
<path id="Vector_79" d="M9.73257 5.53809H9.11719V6.15347H9.73257V5.53809Z" fill="#29FF47"/>
<path id="Vector_80" d="M11.5763 5.53809H10.9609V6.15347H11.5763V5.53809Z" fill="#29FF47"/>
<path id="Vector_81" d="M12.1896 5.53809H11.5742V6.15347H12.1896V5.53809Z" fill="#29FF47"/>
<path id="Vector_82" d="M12.8068 5.53809H12.1914V6.15347H12.8068V5.53809Z" fill="#29FF47"/>
<path id="Vector_83" d="M13.424 5.53809H12.8086V6.15347H13.424V5.53809Z" fill="#29FF47"/>
<path id="Vector_84" d="M14.6544 5.53809H14.0391V6.15347H14.6544V5.53809Z" fill="#29FF47"/>
<path id="Vector_85" d="M2.34585 6.1543H1.73047V6.76968H2.34585V6.1543Z" fill="#29FF47"/>
<path id="Vector_86" d="M3.57632 6.1543H2.96094V6.76968H3.57632V6.1543Z" fill="#29FF47"/>
<path id="Vector_87" d="M4.1896 6.1543H3.57422V6.76968H4.1896V6.1543Z" fill="#29FF47"/>
<path id="Vector_88" d="M4.80679 6.1543H4.19141V6.76968H4.80679V6.1543Z" fill="#29FF47"/>
<path id="Vector_89" d="M5.42398 6.1543H4.80859V6.76968H5.42398V6.1543Z" fill="#29FF47"/>
<path id="Vector_90" d="M6.04117 6.1543H5.42578V6.76968H6.04117V6.1543Z" fill="#29FF47"/>
<path id="Vector_91" d="M7.26773 6.1543H6.65234V6.76968H7.26773V6.1543Z" fill="#29FF47"/>
<path id="Vector_92" d="M7.88492 6.1543H7.26953V6.76968H7.88492V6.1543Z" fill="#29FF47"/>
<path id="Vector_93" d="M9.73257 6.1543H9.11719V6.76968H9.73257V6.1543Z" fill="#29FF47"/>
<path id="Vector_94" d="M11.5763 6.1543H10.9609V6.76968H11.5763V6.1543Z" fill="#29FF47"/>
<path id="Vector_95" d="M12.1896 6.1543H11.5742V6.76968H12.1896V6.1543Z" fill="#29FF47"/>
<path id="Vector_96" d="M12.8068 6.1543H12.1914V6.76968H12.8068V6.1543Z" fill="#29FF47"/>
<path id="Vector_97" d="M13.424 6.1543H12.8086V6.76968H13.424V6.1543Z" fill="#29FF47"/>
<path id="Vector_98" d="M14.0412 6.1543H13.4258V6.76968H14.0412V6.1543Z" fill="#29FF47"/>
<path id="Vector_99" d="M15.2677 6.1543H14.6523V6.76968H15.2677V6.1543Z" fill="#29FF47"/>
<path id="Vector_100" d="M2.34585 6.76855H1.73047V7.38394H2.34585V6.76855Z" fill="#29FF47"/>
<path id="Vector_101" d="M3.57632 6.76855H2.96094V7.38394H3.57632V6.76855Z" fill="#29FF47"/>
<path id="Vector_102" d="M4.1896 6.76855H3.57422V7.38394H4.1896V6.76855Z" fill="#29FF47"/>
<path id="Vector_103" d="M4.80679 6.76855H4.19141V7.38394H4.80679V6.76855Z" fill="#29FF47"/>
<path id="Vector_104" d="M5.42398 6.76855H4.80859V7.38394H5.42398V6.76855Z" fill="#29FF47"/>
<path id="Vector_105" d="M6.04117 6.76855H5.42578V7.38394H6.04117V6.76855Z" fill="#29FF47"/>
<path id="Vector_106" d="M7.88492 6.76855H7.26953V7.38394H7.88492V6.76855Z" fill="#29FF47"/>
<path id="Vector_107" d="M9.73257 6.76855H9.11719V7.38394H9.73257V6.76855Z" fill="#29FF47"/>
<path id="Vector_108" d="M10.3459 6.76855H9.73047V7.38394H10.3459V6.76855Z" fill="#29FF47"/>
<path id="Vector_109" d="M10.963 6.76855H10.3477V7.38394H10.963V6.76855Z" fill="#29FF47"/>
<path id="Vector_110" d="M11.5763 6.76855H10.9609V7.38394H11.5763V6.76855Z" fill="#29FF47"/>
<path id="Vector_111" d="M12.1896 6.76855H11.5742V7.38394H12.1896V6.76855Z" fill="#29FF47"/>
<path id="Vector_112" d="M12.8068 6.76855H12.1914V7.38394H12.8068V6.76855Z" fill="#29FF47"/>
<path id="Vector_113" d="M13.424 6.76855H12.8086V7.38394H13.424V6.76855Z" fill="#29FF47"/>
<path id="Vector_114" d="M14.0412 6.76855H13.4258V7.38394H14.0412V6.76855Z" fill="#29FF47"/>
<path id="Vector_115" d="M15.2677 6.76855H14.6523V7.38394H15.2677V6.76855Z" fill="#29FF47"/>
<path id="Vector_116" d="M2.34585 7.38477H1.73047V8.00015H2.34585V7.38477Z" fill="#29FF47"/>
<path id="Vector_117" d="M3.57632 7.38477H2.96094V8.00015H3.57632V7.38477Z" fill="#29FF47"/>
<path id="Vector_118" d="M4.1896 7.38477H3.57422V8.00015H4.1896V7.38477Z" fill="#29FF47"/>
<path id="Vector_119" d="M4.80679 7.38477H4.19141V8.00015H4.80679V7.38477Z" fill="#29FF47"/>
<path id="Vector_120" d="M5.42398 7.38477H4.80859V8.00015H5.42398V7.38477Z" fill="#29FF47"/>
<path id="Vector_121" d="M6.04117 7.38477H5.42578V8.00015H6.04117V7.38477Z" fill="#29FF47"/>
<path id="Vector_122" d="M10.963 7.38477H10.3477V8.00015H10.963V7.38477Z" fill="#29FF47"/>
<path id="Vector_123" d="M11.5763 7.38477H10.9609V8.00015H11.5763V7.38477Z" fill="#29FF47"/>
<path id="Vector_124" d="M12.1896 7.38477H11.5742V8.00015H12.1896V7.38477Z" fill="#29FF47"/>
<path id="Vector_125" d="M12.8068 7.38477H12.1914V8.00015H12.8068V7.38477Z" fill="#29FF47"/>
<path id="Vector_126" d="M13.424 7.38477H12.8086V8.00015H13.424V7.38477Z" fill="#29FF47"/>
<path id="Vector_127" d="M14.0412 7.38477H13.4258V8.00015H14.0412V7.38477Z" fill="#29FF47"/>
<path id="Vector_128" d="M15.2677 7.38477H14.6523V8.00015H15.2677V7.38477Z" fill="#29FF47"/>
<path id="Vector_129" d="M2.34585 8H1.73047V8.61538H2.34585V8Z" fill="#29FF47"/>
<path id="Vector_130" d="M3.57632 8H2.96094V8.61538H3.57632V8Z" fill="#29FF47"/>
<path id="Vector_131" d="M4.1896 8H3.57422V8.61538H4.1896V8Z" fill="#29FF47"/>
<path id="Vector_132" d="M4.80679 8H4.19141V8.61538H4.80679V8Z" fill="#29FF47"/>
<path id="Vector_133" d="M5.42398 8H4.80859V8.61538H5.42398V8Z" fill="#29FF47"/>
<path id="Vector_134" d="M6.04117 8H5.42578V8.61538H6.04117V8Z" fill="#29FF47"/>
<path id="Vector_135" d="M6.65445 8H6.03906V8.61538H6.65445V8Z" fill="#29FF47"/>
<path id="Vector_136" d="M11.5763 8H10.9609V8.61538H11.5763V8Z" fill="#29FF47"/>
<path id="Vector_137" d="M12.1896 8H11.5742V8.61538H12.1896V8Z" fill="#29FF47"/>
<path id="Vector_138" d="M12.8068 8H12.1914V8.61538H12.8068V8Z" fill="#29FF47"/>
<path id="Vector_139" d="M13.424 8H12.8086V8.61538H13.424V8Z" fill="#29FF47"/>
<path id="Vector_140" d="M14.0412 8H13.4258V8.61538H14.0412V8Z" fill="#29FF47"/>
<path id="Vector_141" d="M15.2677 8H14.6523V8.61538H15.2677V8Z" fill="#29FF47"/>
<path id="Vector_142" d="M2.34585 8.61523H1.73047V9.23062H2.34585V8.61523Z" fill="#29FF47"/>
<path id="Vector_143" d="M3.57632 8.61523H2.96094V9.23062H3.57632V8.61523Z" fill="#29FF47"/>
<path id="Vector_144" d="M4.1896 8.61523H3.57422V9.23062H4.1896V8.61523Z" fill="#29FF47"/>
<path id="Vector_145" d="M4.80679 8.61523H4.19141V9.23062H4.80679V8.61523Z" fill="#29FF47"/>
<path id="Vector_146" d="M5.42398 8.61523H4.80859V9.23062H5.42398V8.61523Z" fill="#29FF47"/>
<path id="Vector_147" d="M6.04117 8.61523H5.42578V9.23062H6.04117V8.61523Z" fill="#29FF47"/>
<path id="Vector_148" d="M6.65445 8.61523H6.03906V9.23062H6.65445V8.61523Z" fill="#29FF47"/>
<path id="Vector_149" d="M7.26773 8.61523H6.65234V9.23062H7.26773V8.61523Z" fill="#29FF47"/>
<path id="Vector_150" d="M7.88492 8.61523H7.26953V9.23062H7.88492V8.61523Z" fill="#29FF47"/>
<path id="Vector_151" d="M9.73257 8.61523H9.11719V9.23062H9.73257V8.61523Z" fill="#29FF47"/>
<path id="Vector_152" d="M11.5763 8.61523H10.9609V9.23062H11.5763V8.61523Z" fill="#29FF47"/>
<path id="Vector_153" d="M12.1896 8.61523H11.5742V9.23062H12.1896V8.61523Z" fill="#29FF47"/>
<path id="Vector_154" d="M12.8068 8.61523H12.1914V9.23062H12.8068V8.61523Z" fill="#29FF47"/>
<path id="Vector_155" d="M13.424 8.61523H12.8086V9.23062H13.424V8.61523Z" fill="#29FF47"/>
<path id="Vector_156" d="M14.0412 8.61523H13.4258V9.23062H14.0412V8.61523Z" fill="#29FF47"/>
<path id="Vector_157" d="M15.2677 8.61523H14.6523V9.23062H15.2677V8.61523Z" fill="#29FF47"/>
<path id="Vector_158" d="M2.34585 9.23145H1.73047V9.84683H2.34585V9.23145Z" fill="#29FF47"/>
<path id="Vector_159" d="M3.57632 9.23145H2.96094V9.84683H3.57632V9.23145Z" fill="#29FF47"/>
<path id="Vector_160" d="M4.1896 9.23145H3.57422V9.84683H4.1896V9.23145Z" fill="#29FF47"/>
<path id="Vector_161" d="M4.80679 9.23145H4.19141V9.84683H4.80679V9.23145Z" fill="#29FF47"/>
<path id="Vector_162" d="M5.42398 9.23145H4.80859V9.84683H5.42398V9.23145Z" fill="#29FF47"/>
<path id="Vector_163" d="M6.04117 9.23145H5.42578V9.84683H6.04117V9.23145Z" fill="#29FF47"/>
<path id="Vector_164" d="M7.88492 9.23145H7.26953V9.84683H7.88492V9.23145Z" fill="#29FF47"/>
<path id="Vector_165" d="M9.73257 9.23145H9.11719V9.84683H9.73257V9.23145Z" fill="#29FF47"/>
<path id="Vector_166" d="M10.3459 9.23145H9.73047V9.84683H10.3459V9.23145Z" fill="#29FF47"/>
<path id="Vector_167" d="M11.5763 9.23145H10.9609V9.84683H11.5763V9.23145Z" fill="#29FF47"/>
<path id="Vector_168" d="M12.1896 9.23145H11.5742V9.84683H12.1896V9.23145Z" fill="#29FF47"/>
<path id="Vector_169" d="M12.8068 9.23145H12.1914V9.84683H12.8068V9.23145Z" fill="#29FF47"/>
<path id="Vector_170" d="M13.424 9.23145H12.8086V9.84683H13.424V9.23145Z" fill="#29FF47"/>
<path id="Vector_171" d="M14.0412 9.23145H13.4258V9.84683H14.0412V9.23145Z" fill="#29FF47"/>
<path id="Vector_172" d="M15.2677 9.23145H14.6523V9.84683H15.2677V9.23145Z" fill="#29FF47"/>
<path id="Vector_173" d="M2.96304 9.8457H2.34766V10.4611H2.96304V9.8457Z" fill="#29FF47"/>
<path id="Vector_174" d="M4.1896 9.8457H3.57422V10.4611H4.1896V9.8457Z" fill="#29FF47"/>
<path id="Vector_175" d="M4.80679 9.8457H4.19141V10.4611H4.80679V9.8457Z" fill="#29FF47"/>
<path id="Vector_176" d="M5.42398 9.8457H4.80859V10.4611H5.42398V9.8457Z" fill="#29FF47"/>
<path id="Vector_177" d="M6.04117 9.8457H5.42578V10.4611H6.04117V9.8457Z" fill="#29FF47"/>
<path id="Vector_178" d="M7.88492 9.8457H7.26953V10.4611H7.88492V9.8457Z" fill="#29FF47"/>
<path id="Vector_179" d="M9.73257 9.8457H9.11719V10.4611H9.73257V9.8457Z" fill="#29FF47"/>
<path id="Vector_180" d="M11.5763 9.8457H10.9609V10.4611H11.5763V9.8457Z" fill="#29FF47"/>
<path id="Vector_181" d="M12.1896 9.8457H11.5742V10.4611H12.1896V9.8457Z" fill="#29FF47"/>
<path id="Vector_182" d="M12.8068 9.8457H12.1914V10.4611H12.8068V9.8457Z" fill="#29FF47"/>
<path id="Vector_183" d="M13.424 9.8457H12.8086V10.4611H13.424V9.8457Z" fill="#29FF47"/>
<path id="Vector_184" d="M14.6544 9.8457H14.0391V10.4611H14.6544V9.8457Z" fill="#29FF47"/>
<path id="Vector_185" d="M2.96304 10.4619H2.34766V11.0773H2.96304V10.4619Z" fill="#29FF47"/>
<path id="Vector_186" d="M4.1896 10.4619H3.57422V11.0773H4.1896V10.4619Z" fill="#29FF47"/>
<path id="Vector_187" d="M4.80679 10.4619H4.19141V11.0773H4.80679V10.4619Z" fill="#29FF47"/>
<path id="Vector_188" d="M5.42398 10.4619H4.80859V11.0773H5.42398V10.4619Z" fill="#29FF47"/>
<path id="Vector_189" d="M6.04117 10.4619H5.42578V11.0773H6.04117V10.4619Z" fill="#29FF47"/>
<path id="Vector_190" d="M6.65445 10.4619H6.03906V11.0773H6.65445V10.4619Z" fill="#29FF47"/>
<path id="Vector_191" d="M10.963 10.4619H10.3477V11.0773H10.963V10.4619Z" fill="#29FF47"/>
<path id="Vector_192" d="M11.5763 10.4619H10.9609V11.0773H11.5763V10.4619Z" fill="#29FF47"/>
<path id="Vector_193" d="M12.1896 10.4619H11.5742V11.0773H12.1896V10.4619Z" fill="#29FF47"/>
<path id="Vector_194" d="M12.8068 10.4619H12.1914V11.0773H12.8068V10.4619Z" fill="#29FF47"/>
<path id="Vector_195" d="M13.424 10.4619H12.8086V11.0773H13.424V10.4619Z" fill="#29FF47"/>
<path id="Vector_196" d="M14.6544 10.4619H14.0391V11.0773H14.6544V10.4619Z" fill="#29FF47"/>
<path id="Vector_197" d="M3.57632 11.0771H2.96094V11.6925H3.57632V11.0771Z" fill="#29FF47"/>
<path id="Vector_198" d="M4.80679 11.0771H4.19141V11.6925H4.80679V11.0771Z" fill="#29FF47"/>
<path id="Vector_199" d="M5.42398 11.0771H4.80859V11.6925H5.42398V11.0771Z" fill="#29FF47"/>
<path id="Vector_200" d="M6.04117 11.0771H5.42578V11.6925H6.04117V11.0771Z" fill="#29FF47"/>
<path id="Vector_201" d="M6.65445 11.0771H6.03906V11.6925H6.65445V11.0771Z" fill="#29FF47"/>
<path id="Vector_202" d="M7.26773 11.0771H6.65234V11.6925H7.26773V11.0771Z" fill="#29FF47"/>
<path id="Vector_203" d="M7.88492 11.0771H7.26953V11.6925H7.88492V11.0771Z" fill="#29FF47"/>
<path id="Vector_204" d="M9.73257 11.0771H9.11719V11.6925H9.73257V11.0771Z" fill="#29FF47"/>
<path id="Vector_205" d="M10.3459 11.0771H9.73047V11.6925H10.3459V11.0771Z" fill="#29FF47"/>
<path id="Vector_206" d="M10.963 11.0771H10.3477V11.6925H10.963V11.0771Z" fill="#29FF47"/>
<path id="Vector_207" d="M11.5763 11.0771H10.9609V11.6925H11.5763V11.0771Z" fill="#29FF47"/>
<path id="Vector_208" d="M12.1896 11.0771H11.5742V11.6925H12.1896V11.0771Z" fill="#29FF47"/>
<path id="Vector_209" d="M12.8068 11.0771H12.1914V11.6925H12.8068V11.0771Z" fill="#29FF47"/>
<path id="Vector_210" d="M14.0412 11.0771H13.4258V11.6925H14.0412V11.0771Z" fill="#29FF47"/>
<path id="Vector_211" d="M3.57632 11.6924H2.96094V12.3078H3.57632V11.6924Z" fill="#29FF47"/>
<path id="Vector_212" d="M4.80679 11.6924H4.19141V12.3078H4.80679V11.6924Z" fill="#29FF47"/>
<path id="Vector_213" d="M5.42398 11.6924H4.80859V12.3078H5.42398V11.6924Z" fill="#29FF47"/>
<path id="Vector_214" d="M6.04117 11.6924H5.42578V12.3078H6.04117V11.6924Z" fill="#29FF47"/>
<path id="Vector_215" d="M6.65445 11.6924H6.03906V12.3078H6.65445V11.6924Z" fill="#29FF47"/>
<path id="Vector_216" d="M7.26773 11.6924H6.65234V12.3078H7.26773V11.6924Z" fill="#29FF47"/>
<path id="Vector_217" d="M7.88492 11.6924H7.26953V12.3078H7.88492V11.6924Z" fill="#29FF47"/>
<path id="Vector_218" d="M9.73257 11.6924H9.11719V12.3078H9.73257V11.6924Z" fill="#29FF47"/>
<path id="Vector_219" d="M10.3459 11.6924H9.73047V12.3078H10.3459V11.6924Z" fill="#29FF47"/>
<path id="Vector_220" d="M10.963 11.6924H10.3477V12.3078H10.963V11.6924Z" fill="#29FF47"/>
<path id="Vector_221" d="M11.5763 11.6924H10.9609V12.3078H11.5763V11.6924Z" fill="#29FF47"/>
<path id="Vector_222" d="M12.1896 11.6924H11.5742V12.3078H12.1896V11.6924Z" fill="#29FF47"/>
<path id="Vector_223" d="M12.8068 11.6924H12.1914V12.3078H12.8068V11.6924Z" fill="#29FF47"/>
<path id="Vector_224" d="M14.0412 11.6924H13.4258V12.3078H14.0412V11.6924Z" fill="#29FF47"/>
<path id="Vector_225" d="M4.1896 12.3076H3.57422V12.923H4.1896V12.3076Z" fill="#29FF47"/>
<path id="Vector_226" d="M6.04117 12.3076H5.42578V12.923H6.04117V12.3076Z" fill="#29FF47"/>
<path id="Vector_227" d="M6.65445 12.3076H6.03906V12.923H6.65445V12.3076Z" fill="#29FF47"/>
<path id="Vector_228" d="M7.26773 12.3076H6.65234V12.923H7.26773V12.3076Z" fill="#29FF47"/>
<path id="Vector_229" d="M7.88492 12.3076H7.26953V12.923H7.88492V12.3076Z" fill="#29FF47"/>
<path id="Vector_230" d="M8.4982 12.3076H7.88281V12.923H8.4982V12.3076Z" fill="#29FF47"/>
<path id="Vector_231" d="M9.11538 12.3076H8.5V12.923H9.11538V12.3076Z" fill="#29FF47"/>
<path id="Vector_232" d="M9.73257 12.3076H9.11719V12.923H9.73257V12.3076Z" fill="#29FF47"/>
<path id="Vector_233" d="M10.3459 12.3076H9.73047V12.923H10.3459V12.3076Z" fill="#29FF47"/>
<path id="Vector_234" d="M10.963 12.3076H10.3477V12.923H10.963V12.3076Z" fill="#29FF47"/>
<path id="Vector_235" d="M11.5763 12.3076H10.9609V12.923H11.5763V12.3076Z" fill="#29FF47"/>
<path id="Vector_236" d="M13.424 12.3076H12.8086V12.923H13.424V12.3076Z" fill="#29FF47"/>
<path id="Vector_237" d="M4.80679 12.9229H4.19141V13.5382H4.80679V12.9229Z" fill="#29FF47"/>
<path id="Vector_238" d="M5.42398 12.9229H4.80859V13.5382H5.42398V12.9229Z" fill="#29FF47"/>
<path id="Vector_239" d="M7.26773 12.9229H6.65234V13.5382H7.26773V12.9229Z" fill="#29FF47"/>
<path id="Vector_240" d="M7.88492 12.9229H7.26953V13.5382H7.88492V12.9229Z" fill="#29FF47"/>
<path id="Vector_241" d="M8.4982 12.9229H7.88281V13.5382H8.4982V12.9229Z" fill="#29FF47"/>
<path id="Vector_242" d="M9.11538 12.9229H8.5V13.5382H9.11538V12.9229Z" fill="#29FF47"/>
<path id="Vector_243" d="M9.73257 12.9229H9.11719V13.5382H9.73257V12.9229Z" fill="#29FF47"/>
<path id="Vector_244" d="M10.3459 12.9229H9.73047V13.5382H10.3459V12.9229Z" fill="#29FF47"/>
<path id="Vector_245" d="M12.1896 12.9229H11.5742V13.5382H12.1896V12.9229Z" fill="#29FF47"/>
<path id="Vector_246" d="M12.8068 12.9229H12.1914V13.5382H12.8068V12.9229Z" fill="#29FF47"/>
<path id="Vector_247" d="M6.04117 13.5381H5.42578V14.1535H6.04117V13.5381Z" fill="#29FF47"/>
<path id="Vector_248" d="M6.65445 13.5381H6.03906V14.1535H6.65445V13.5381Z" fill="#29FF47"/>
<path id="Vector_249" d="M10.963 13.5381H10.3477V14.1535H10.963V13.5381Z" fill="#29FF47"/>
<path id="Vector_250" d="M11.5763 13.5381H10.9609V14.1535H11.5763V13.5381Z" fill="#29FF47"/>
<path id="Vector_251" d="M7.26773 14.1543H6.65234V14.7697H7.26773V14.1543Z" fill="#29FF47"/>
<path id="Vector_252" d="M7.88492 14.1543H7.26953V14.7697H7.88492V14.1543Z" fill="#29FF47"/>
<path id="Vector_253" d="M8.4982 14.1543H7.88281V14.7697H8.4982V14.1543Z" fill="#29FF47"/>
<path id="Vector_254" d="M9.11538 14.1543H8.5V14.7697H9.11538V14.1543Z" fill="#29FF47"/>
<path id="Vector_255" d="M9.73257 14.1543H9.11719V14.7697H9.73257V14.1543Z" fill="#29FF47"/>
<path id="Vector_256" d="M10.3459 14.1543H9.73047V14.7697H10.3459V14.1543Z" fill="#29FF47"/>
</g>
</svg>
