<svg width="21" height="20" viewBox="0 0 21 20" fill="none" xmlns="http://www.w3.org/2000/svg">
<g id="camera_alt" clip-path="url(#clip0_347_5617)">
<path id="Vector" d="M10.5 12.5C11.8807 12.5 13 11.3807 13 10C13 8.61929 11.8807 7.5 10.5 7.5C9.11929 7.5 8 8.61929 8 10C8 11.3807 9.11929 12.5 10.5 12.5Z" fill="#DBB2FF"/>
<path id="Vector_2" d="M17.168 3.33366H14.5263L13.493 2.20866C13.1846 1.86699 12.7346 1.66699 12.268 1.66699H8.73464C8.26797 1.66699 7.81797 1.86699 7.5013 2.20866L6.4763 3.33366H3.83464C2.91797 3.33366 2.16797 4.08366 2.16797 5.00033V15.0003C2.16797 15.917 2.91797 16.667 3.83464 16.667H17.168C18.0846 16.667 18.8346 15.917 18.8346 15.0003V5.00033C18.8346 4.08366 18.0846 3.33366 17.168 3.33366ZM10.5013 14.167C8.2013 14.167 6.33464 12.3003 6.33464 10.0003C6.33464 7.70033 8.2013 5.83366 10.5013 5.83366C12.8013 5.83366 14.668 7.70033 14.668 10.0003C14.668 12.3003 12.8013 14.167 10.5013 14.167Z" fill="#DBB2FF"/>
</g>
<defs>
<clipPath id="clip0_347_5617">
<rect width="20" height="20" fill="white" transform="translate(0.5)"/>
</clipPath>
</defs>
</svg>
