<svg width="19" height="18" viewBox="0 0 19 18" fill="none" xmlns="http://www.w3.org/2000/svg">
<g id="supervised_user_circle" clip-path="url(#clip0_940_144195)">
<path id="Vector" d="M9.5 1.5C5.36 1.5 2 4.86 2 9C2 13.14 5.36 16.5 9.5 16.5C13.64 16.5 17 13.14 17 9C17 4.86 13.64 1.5 9.5 1.5ZM12.2075 6.255C13.01 6.255 13.655 6.9 13.655 7.7025C13.655 8.505 13.01 9.15 12.2075 9.15C11.405 9.15 10.76 8.505 10.76 7.7025C10.7525 6.9 11.405 6.255 12.2075 6.255ZM7.7075 5.07C8.6825 5.07 9.4775 5.865 9.4775 6.84C9.4775 7.815 8.6825 8.61 7.7075 8.61C6.7325 8.61 5.9375 7.815 5.9375 6.84C5.9375 5.8575 6.725 5.07 7.7075 5.07ZM7.7075 11.9175V14.73C5.9075 14.1675 4.4825 12.78 3.8525 11.01C4.64 10.17 6.605 9.7425 7.7075 9.7425C8.105 9.7425 8.6075 9.8025 9.1325 9.9075C7.9025 10.56 7.7075 11.4225 7.7075 11.9175ZM9.5 15C9.2975 15 9.1025 14.9925 8.9075 14.97V11.9175C8.9075 10.8525 11.1125 10.32 12.2075 10.32C13.01 10.32 14.3975 10.6125 15.0875 11.1825C14.21 13.41 12.0425 15 9.5 15Z" fill="url(#paint0_linear_940_144195)"/>
</g>
<defs>
<linearGradient id="paint0_linear_940_144195" x1="9.5" y1="1.5" x2="9.5" y2="16.5" gradientUnits="userSpaceOnUse">
<stop stop-color="#BAD2DC"/>
<stop offset="1" stop-color="#03DAC5"/>
</linearGradient>
<clipPath id="clip0_940_144195">
<rect width="18" height="18" fill="white" transform="translate(0.5)"/>
</clipPath>
</defs>
</svg>
