<svg width="26" height="26" viewBox="0 0 26 26" fill="none" xmlns="http://www.w3.org/2000/svg">
<path d="M13 15.9546C14.3054 15.9546 15.3636 14.8963 15.3636 13.5909C15.3636 12.2855 14.3054 11.2273 13 11.2273C11.6946 11.2273 10.6364 12.2855 10.6364 13.5909C10.6364 14.8963 11.6946 15.9546 13 15.9546Z" fill="#38384B"/>
<path d="M10.0454 16.5454H15.9545C16.9354 16.5454 17.7273 17.3372 17.7273 18.3181V22.4545H8.27271V18.3181C8.27271 17.3372 9.06452 16.5454 10.0454 16.5454Z" fill="#38384B"/>
<path d="M19.5119 14.7727C20.4844 14.7727 21.2728 13.9791 21.2728 13C21.2728 12.021 20.4844 11.2273 19.5119 11.2273C18.5394 11.2273 17.751 12.021 17.751 13C17.751 13.9791 18.5394 14.7727 19.5119 14.7727Z" fill="#38384B"/>
<path d="M6.50002 14.7727C7.47907 14.7727 8.27275 13.9791 8.27275 13C8.27275 12.021 7.47907 11.2273 6.50002 11.2273C5.52097 11.2273 4.72729 12.021 4.72729 13C4.72729 13.9791 5.52097 14.7727 6.50002 14.7727Z" fill="#38384B"/>
<path d="M16.6459 15.9606H16.3091C16.6873 15.5942 17.1777 15.3638 17.7214 15.3638H21.4854C22.6732 15.3638 23.6364 16.4215 23.6364 17.7274V20.682H18.7968V18.3183C18.7968 17.0124 17.8336 15.9547 16.6459 15.9547V15.9606Z" fill="#38384B"/>
<path d="M9.3541 15.9606H9.69092C9.31274 15.5942 8.82228 15.3638 8.27865 15.3638H4.51456C3.32683 15.3638 2.36365 16.4215 2.36365 17.7274V20.682H7.20319V18.3183C7.20319 17.0124 8.16638 15.9547 9.3541 15.9547V15.9606Z" fill="#38384B"/>
<path d="M7.09093 10.6364C6.89593 9.8505 6.69502 9.05868 6.50002 8.27277C7.36866 8.01277 8.37911 7.63459 9.45457 7.09095C10.9496 6.33459 12.1255 5.47186 13 4.72732C13.8746 5.47186 15.0505 6.33459 16.5455 7.09095C17.6209 7.63459 18.6314 8.01277 19.5 8.27277C19.305 9.05868 19.1041 9.8505 18.9091 10.6364H20.6818C20.8768 9.64959 21.0777 8.66868 21.2727 7.68186C20.0909 7.30959 18.6609 6.75414 17.1364 5.90914C15.3814 4.93414 14.0105 3.86459 13 2.95459C11.9896 3.86459 10.6187 4.93414 8.86366 5.90914C7.33911 6.75414 5.90911 7.30959 4.72729 7.68186C4.92229 8.66868 5.1232 9.64959 5.3182 10.6364H7.09093Z" fill="#38384B"/>
</svg>
