<svg width="22" height="22" viewBox="0 0 22 22" fill="none" xmlns="http://www.w3.org/2000/svg">
<g id="account_circle" clip-path="url(#clip0_1116_5771)">
<path id="Vector" d="M10.9987 1.83301C5.9387 1.83301 1.83203 5.93967 1.83203 10.9997C1.83203 16.0597 5.9387 20.1663 10.9987 20.1663C16.0587 20.1663 20.1654 16.0597 20.1654 10.9997C20.1654 5.93967 16.0587 1.83301 10.9987 1.83301ZM10.9987 4.58301C12.5204 4.58301 13.7487 5.81134 13.7487 7.33301C13.7487 8.85467 12.5204 10.083 10.9987 10.083C9.47703 10.083 8.2487 8.85467 8.2487 7.33301C8.2487 5.81134 9.47703 4.58301 10.9987 4.58301ZM10.9987 17.5997C8.70703 17.5997 6.6812 16.4263 5.4987 14.648C5.5262 12.8238 9.16536 11.8247 10.9987 11.8247C12.8229 11.8247 16.4712 12.8238 16.4987 14.648C15.3162 16.4263 13.2904 17.5997 10.9987 17.5997Z" fill="#686879"/>
</g>
<defs>
<clipPath id="clip0_1116_5771">
<rect width="22" height="22" fill="white"/>
</clipPath>
</defs>
</svg>
