<svg width="20" height="20" viewBox="0 0 20 20" fill="none" xmlns="http://www.w3.org/2000/svg">
<g id="emoticon-wh" opacity="0.6" clip-path="url(#clip0_1138_32159)">
<path id="Vector" opacity="0.3" d="M10.0002 3.33331C6.31683 3.33331 3.3335 6.31665 3.3335 9.99998C3.3335 13.6833 6.31683 16.6666 10.0002 16.6666C13.6835 16.6666 16.6668 13.6833 16.6668 9.99998C16.6668 6.31665 13.6835 3.33331 10.0002 3.33331ZM12.9168 6.66665C13.6085 6.66665 14.1668 7.22498 14.1668 7.91665C14.1668 8.60831 13.6085 9.16665 12.9168 9.16665C12.2252 9.16665 11.6668 8.60831 11.6668 7.91665C11.6668 7.22498 12.2252 6.66665 12.9168 6.66665ZM7.0835 6.66665C7.77516 6.66665 8.3335 7.22498 8.3335 7.91665C8.3335 8.60831 7.77516 9.16665 7.0835 9.16665C6.39183 9.16665 5.8335 8.60831 5.8335 7.91665C5.8335 7.22498 6.39183 6.66665 7.0835 6.66665ZM10.0002 14.5833C8.0585 14.5833 6.4085 13.3666 5.74183 11.6666H14.2585C13.5918 13.3666 11.9418 14.5833 10.0002 14.5833Z" fill="white"/>
<path id="Vector_2" d="M7.0835 9.16669C7.77385 9.16669 8.3335 8.60704 8.3335 7.91669C8.3335 7.22633 7.77385 6.66669 7.0835 6.66669C6.39314 6.66669 5.8335 7.22633 5.8335 7.91669C5.8335 8.60704 6.39314 9.16669 7.0835 9.16669Z" fill="white"/>
<path id="Vector_3" d="M10 14.5834C11.9417 14.5834 13.5917 13.3667 14.2584 11.6667H5.7417C6.40837 13.3667 8.05837 14.5834 10 14.5834Z" fill="white"/>
<path id="Vector_4" d="M12.9165 9.16669C13.6069 9.16669 14.1665 8.60704 14.1665 7.91669C14.1665 7.22633 13.6069 6.66669 12.9165 6.66669C12.2261 6.66669 11.6665 7.22633 11.6665 7.91669C11.6665 8.60704 12.2261 9.16669 12.9165 9.16669Z" fill="white"/>
<path id="Vector_5" d="M9.9915 1.66669C5.3915 1.66669 1.6665 5.40002 1.6665 10C1.6665 14.6 5.3915 18.3334 9.9915 18.3334C14.5998 18.3334 18.3332 14.6 18.3332 10C18.3332 5.40002 14.5998 1.66669 9.9915 1.66669ZM9.99984 16.6667C6.3165 16.6667 3.33317 13.6834 3.33317 10C3.33317 6.31669 6.3165 3.33335 9.99984 3.33335C13.6832 3.33335 16.6665 6.31669 16.6665 10C16.6665 13.6834 13.6832 16.6667 9.99984 16.6667Z" fill="white"/>
</g>
<defs>
<clipPath id="clip0_1138_32159">
<rect width="20" height="20" fill="white"/>
</clipPath>
</defs>
</svg>
