<svg width="19" height="18" viewBox="0 0 19 18" fill="none" xmlns="http://www.w3.org/2000/svg">
<g id="timer" clip-path="url(#clip0_818_246739)">
<path id="Vector" d="M11.75 0.75H7.25V2.25H11.75V0.75ZM8.75 10.5H10.25V6H8.75V10.5ZM14.7725 5.5425L15.8375 4.4775C15.515 4.095 15.1625 3.735 14.78 3.42L13.715 4.485C12.5525 3.555 11.09 3 9.5 3C5.7725 3 2.75 6.0225 2.75 9.75C2.75 13.4775 5.765 16.5 9.5 16.5C13.235 16.5 16.25 13.4775 16.25 9.75C16.25 8.16 15.695 6.6975 14.7725 5.5425ZM9.5 15C6.5975 15 4.25 12.6525 4.25 9.75C4.25 6.8475 6.5975 4.5 9.5 4.5C12.4025 4.5 14.75 6.8475 14.75 9.75C14.75 12.6525 12.4025 15 9.5 15Z" fill="white"/>
</g>
<defs>
<clipPath id="clip0_818_246739">
<rect width="18" height="18" fill="white" transform="translate(0.5)"/>
</clipPath>
</defs>
</svg>
