<svg width="17" height="16" viewBox="0 0 17 16" fill="none" xmlns="http://www.w3.org/2000/svg">
<g id="Icon">
<path id="Vector" d="M12.3876 1.99978V0.888672H4.60981V1.99978H1.83203V4.77756C1.83203 6.61645 3.32648 8.11089 5.16536 8.11089H5.38759C5.88203 8.89978 6.57648 9.49423 7.38759 9.78312V10.8887L5.16536 13.1109V13.6665H11.832V13.1109L9.60981 10.8887V9.78312C10.4209 9.49423 11.1154 8.89978 11.6098 8.11089H11.832C13.6709 8.11089 15.1654 6.61645 15.1654 4.77756V1.99978H12.3876ZM2.94314 4.77756V3.11089H4.60981V5.33312C4.60981 5.91089 4.70425 6.46089 4.86536 6.97201C3.78203 6.82201 2.94314 5.90534 2.94314 4.77756ZM14.0543 4.77756C14.0543 5.89978 13.2154 6.82201 12.132 6.97201C12.2931 6.46089 12.3876 5.91089 12.3876 5.33312V3.11089H14.0543V4.77756Z" fill="#686879"/>
<path id="Vector_2" d="M11.8346 14.2227H5.16797V15.3338H11.8346V14.2227Z" fill="#686879"/>
</g>
</svg>
