<svg width="32" height="32" viewBox="0 0 32 32" fill="none" xmlns="http://www.w3.org/2000/svg">
<g id="icon-gift">
<path id="Vector" d="M6.6665 16H5.33317V26.6667C5.33317 27.3739 5.61412 28.0522 6.11422 28.5523C6.61432 29.0524 7.29259 29.3334 7.99984 29.3334H14.6665V16H6.6665ZM23.9998 16H17.3332V29.3334H23.9998C24.7071 29.3334 25.3854 29.0524 25.8855 28.5523C26.3855 28.0522 26.6665 27.3739 26.6665 26.6667V16H23.9998ZM25.0545 9.33335C25.2501 8.68506 25.3441 8.01041 25.3332 7.33335C25.3332 4.76002 23.2398 2.66669 20.6665 2.66669C18.5038 2.66669 17.0598 4.64269 16.1278 6.78002C15.2092 4.76002 13.6918 2.66669 11.3332 2.66669C8.75984 2.66669 6.6665 4.76002 6.6665 7.33335C6.6665 8.12802 6.77184 8.78535 6.94517 9.33335H2.6665V14.6667H14.6665V12H17.3332V14.6667H29.3332V9.33335H25.0545ZM9.33317 7.33335C9.33317 6.23069 10.2305 5.33335 11.3332 5.33335C12.5172 5.33335 13.6185 7.36669 14.2638 9.33335H10.6665C10.1678 9.33335 9.33317 9.33335 9.33317 7.33335ZM20.6665 5.33335C21.7692 5.33335 22.6665 6.23069 22.6665 7.33335C22.6665 9.33335 21.8318 9.33335 21.3332 9.33335H18.0305C18.7105 7.23202 19.6985 5.33335 20.6665 5.33335Z" fill="url(#paint0_linear_1138_34479)"/>
</g>
<defs>
<linearGradient id="paint0_linear_1138_34479" x1="15.9998" y1="2.66669" x2="15.9998" y2="29.3334" gradientUnits="userSpaceOnUse">
<stop stop-color="#03DAC5"/>
<stop offset="1" stop-color="#985EFF"/>
</linearGradient>
</defs>
</svg>
