<svg width="19" height="18" viewBox="0 0 19 18" fill="none" xmlns="http://www.w3.org/2000/svg">
<g id="Group 729">
<path id="Vector" d="M9.27517 3.35677C9.19835 3.28586 9.08017 3.28586 9.00335 3.35677L2.20199 9.99859C2.03654 10.1581 1.9479 10.365 1.9479 10.5777V16.3922C1.9479 16.8768 1.8179 17.2727 2.38517 17.2727H5.62335C6.19063 17.2727 6.06063 16.8768 6.06063 16.3922V11.99C6.06063 11.47 6.52154 11.6413 7.08881 11.6413H11.1956C11.7629 11.6413 12.2238 11.47 12.2238 11.99V16.3922C12.2238 16.8768 12.0938 17.2727 12.6611 17.2727H15.8993C16.4665 17.2727 16.3365 16.8768 16.3365 16.3922V10.5777C16.3365 10.365 16.2479 10.1581 16.0824 9.99859L9.28108 3.35677H9.27517Z" fill="#38384B"/>
<path id="Vector_2" d="M18.1802 8.56272L9.63565 0.331353C9.36384 0.0713525 8.92065 0.0713525 8.64884 0.331353L4.52429 4.31999V1.76726C4.52429 1.42453 4.29384 1.15272 4.0102 1.15272H2.98202C2.69838 1.15272 2.46793 1.43044 2.46793 1.76726V6.30544L0.618381 8.0959C0.506108 8.20226 0.512017 8.37953 0.618381 8.47999L1.24474 9.05317C1.35111 9.15362 1.51656 9.14772 1.62293 9.04726L9.00338 1.86181C9.0802 1.7909 9.19838 1.7909 9.2752 1.86181L17.1697 9.51408C17.2702 9.61453 17.4416 9.61453 17.5479 9.51408L18.1743 8.9409C18.2866 8.83453 18.2925 8.66317 18.1743 8.5509L18.1802 8.56272Z" fill="#38384B"/>
</g>
</svg>
