<svg width="19" height="18" viewBox="0 0 19 18" fill="none" xmlns="http://www.w3.org/2000/svg">
<g id="Group 728">
<path id="Vector" d="M9.27517 3.35689C9.19835 3.28598 9.08017 3.28598 9.00335 3.35689L2.20199 9.99871C2.03654 10.1583 1.9479 10.3651 1.9479 10.5778V16.3923C1.9479 16.8769 1.8179 17.2728 2.38517 17.2728H5.62335C6.19063 17.2728 6.06063 16.8769 6.06063 16.3923V11.9901C6.06063 11.4701 6.52154 11.6414 7.08881 11.6414H11.1956C11.7629 11.6414 12.2238 11.4701 12.2238 11.9901V16.3923C12.2238 16.8769 12.0938 17.2728 12.6611 17.2728H15.8993C16.4665 17.2728 16.3365 16.8769 16.3365 16.3923V10.5778C16.3365 10.3651 16.2479 10.1583 16.0824 9.99871L9.28108 3.35689H9.27517Z" fill="url(#paint0_linear_246_4886)"/>
<path id="Vector_2" d="M18.1802 8.56284L9.63565 0.331475C9.36384 0.0714746 8.92065 0.0714746 8.64884 0.331475L4.52429 4.32011V1.76738C4.52429 1.42466 4.29384 1.15284 4.0102 1.15284H2.98202C2.69838 1.15284 2.46793 1.43057 2.46793 1.76738V6.30557L0.618381 8.09602C0.506108 8.20238 0.512017 8.37966 0.618381 8.48011L1.24474 9.05329C1.35111 9.15375 1.51656 9.14784 1.62293 9.04738L9.00338 1.86193C9.0802 1.79102 9.19838 1.79102 9.2752 1.86193L17.1697 9.5142C17.2702 9.61466 17.4416 9.61466 17.5479 9.5142L18.1743 8.94102C18.2866 8.83466 18.2925 8.66329 18.1743 8.55102L18.1802 8.56284Z" fill="url(#paint1_linear_246_4886)"/>
</g>
<defs>
<linearGradient id="paint0_linear_246_4886" x1="9.14222" y1="3.30371" x2="9.14222" y2="17.2728" gradientUnits="userSpaceOnUse">
<stop stop-color="#9747FF"/>
<stop offset="1" stop-color="#BB86FC"/>
</linearGradient>
<linearGradient id="paint1_linear_246_4886" x1="9.39855" y1="0.136475" x2="9.39855" y2="9.58954" gradientUnits="userSpaceOnUse">
<stop stop-color="#9747FF"/>
<stop offset="1" stop-color="#BB86FC"/>
</linearGradient>
</defs>
</svg>
