<svg width="60" height="60" viewBox="0 0 60 60" fill="none" xmlns="http://www.w3.org/2000/svg">
<g id="equipment/icon">
<path id="Vector" d="M50 6H49V7H50V6Z" fill="#555566"/>
<path id="Vector_2" d="M51 6H50V7H51V6Z" fill="#555566"/>
<path id="Vector_3" d="M52 6H51V7H52V6Z" fill="#555566"/>
<path id="Vector_4" d="M53 6H52V7H53V6Z" fill="#555566"/>
<path id="Vector_5" d="M54 6H53V7H54V6Z" fill="#555566"/>
<path id="Vector_6" d="M48 7H47V8H48V7Z" fill="#555566"/>
<path id="Vector_7" d="M49 7H48V8H49V7Z" fill="#555566"/>
<path id="Vector_8" d="M50 7H49V8H50V7Z" fill="#555566"/>
<path id="Vector_9" d="M51 7H50V8H51V7Z" fill="#555566"/>
<path id="Vector_10" d="M52 7H51V8H52V7Z" fill="#555566"/>
<path id="Vector_11" d="M53 7H52V8H53V7Z" fill="#555566"/>
<path id="Vector_12" d="M54 7H53V8H54V7Z" fill="#555566"/>
<path id="Vector_13" d="M47 8H46V9H47V8Z" fill="#555566"/>
<path id="Vector_14" d="M48 8H47V9H48V8Z" fill="#555566"/>
<path id="Vector_15" d="M49 8H48V9H49V8Z" fill="#555566"/>
<path id="Vector_16" d="M50 8H49V9H50V8Z" fill="#555566"/>
<path id="Vector_17" d="M51 8H50V9H51V8Z" fill="#555566"/>
<path id="Vector_18" d="M52 8H51V9H52V8Z" fill="#555566"/>
<path id="Vector_19" d="M53 8H52V9H53V8Z" fill="#555566"/>
<path id="Vector_20" d="M54 8H53V9H54V8Z" fill="#555566"/>
<path id="Vector_21" d="M45 9H44V10H45V9Z" fill="#555566"/>
<path id="Vector_22" d="M46 9H45V10H46V9Z" fill="#555566"/>
<path id="Vector_23" d="M47 9H46V10H47V9Z" fill="#555566"/>
<path id="Vector_24" d="M48 9H47V10H48V9Z" fill="#555566"/>
<path id="Vector_25" d="M49 9H48V10H49V9Z" fill="#555566"/>
<path id="Vector_26" d="M50 9H49V10H50V9Z" fill="#555566"/>
<path id="Vector_27" d="M51 9H50V10H51V9Z" fill="#555566"/>
<path id="Vector_28" d="M52 9H51V10H52V9Z" fill="#555566"/>
<path id="Vector_29" d="M53 9H52V10H53V9Z" fill="#555566"/>
<path id="Vector_30" d="M54 9H53V10H54V9Z" fill="#555566"/>
<path id="Vector_31" d="M44 10H43V11H44V10Z" fill="#555566"/>
<path id="Vector_32" d="M45 10H44V11H45V10Z" fill="#555566"/>
<path id="Vector_33" d="M46 10H45V11H46V10Z" fill="#555566"/>
<path id="Vector_34" d="M47 10H46V11H47V10Z" fill="#555566"/>
<path id="Vector_35" d="M48 10H47V11H48V10Z" fill="#555566"/>
<path id="Vector_36" d="M49 10H48V11H49V10Z" fill="#555566"/>
<path id="Vector_37" d="M50 10H49V11H50V10Z" fill="#555566"/>
<path id="Vector_38" d="M51 10H50V11H51V10Z" fill="#555566"/>
<path id="Vector_39" d="M52 10H51V11H52V10Z" fill="#555566"/>
<path id="Vector_40" d="M53 10H52V11H53V10Z" fill="#555566"/>
<path id="Vector_41" d="M54 10H53V11H54V10Z" fill="#555566"/>
<path id="Vector_42" d="M43 11H42V12H43V11Z" fill="#555566"/>
<path id="Vector_43" d="M44 11H43V12H44V11Z" fill="#555566"/>
<path id="Vector_44" d="M45 11H44V12H45V11Z" fill="#555566"/>
<path id="Vector_45" d="M46 11H45V12H46V11Z" fill="#555566"/>
<path id="Vector_46" d="M47 11H46V12H47V11Z" fill="#555566"/>
<path id="Vector_47" d="M48 11H47V12H48V11Z" fill="#555566"/>
<path id="Vector_48" d="M49 11H48V12H49V11Z" fill="#555566"/>
<path id="Vector_49" d="M50 11H49V12H50V11Z" fill="#555566"/>
<path id="Vector_50" d="M51 11H50V12H51V11Z" fill="#555566"/>
<path id="Vector_51" d="M52 11H51V12H52V11Z" fill="#555566"/>
<path id="Vector_52" d="M53 11H52V12H53V11Z" fill="#555566"/>
<path id="Vector_53" d="M42 12H41V13H42V12Z" fill="#555566"/>
<path id="Vector_54" d="M43 12H42V13H43V12Z" fill="#555566"/>
<path id="Vector_55" d="M44 12H43V13H44V12Z" fill="#555566"/>
<path id="Vector_56" d="M45 12H44V13H45V12Z" fill="#555566"/>
<path id="Vector_57" d="M46 12H45V13H46V12Z" fill="#555566"/>
<path id="Vector_58" d="M47 12H46V13H47V12Z" fill="#555566"/>
<path id="Vector_59" d="M48 12H47V13H48V12Z" fill="#555566"/>
<path id="Vector_60" d="M49 12H48V13H49V12Z" fill="#555566"/>
<path id="Vector_61" d="M50 12H49V13H50V12Z" fill="#555566"/>
<path id="Vector_62" d="M51 12H50V13H51V12Z" fill="#555566"/>
<path id="Vector_63" d="M52 12H51V13H52V12Z" fill="#555566"/>
<path id="Vector_64" d="M53 12H52V13H53V12Z" fill="#555566"/>
<path id="Vector_65" d="M41 13H40V14H41V13Z" fill="#555566"/>
<path id="Vector_66" d="M42 13H41V14H42V13Z" fill="#555566"/>
<path id="Vector_67" d="M43 13H42V14H43V13Z" fill="#555566"/>
<path id="Vector_68" d="M44 13H43V14H44V13Z" fill="#555566"/>
<path id="Vector_69" d="M45 13H44V14H45V13Z" fill="#555566"/>
<path id="Vector_70" d="M46 13H45V14H46V13Z" fill="#555566"/>
<path id="Vector_71" d="M47 13H46V14H47V13Z" fill="#555566"/>
<path id="Vector_72" d="M48 13H47V14H48V13Z" fill="#555566"/>
<path id="Vector_73" d="M49 13H48V14H49V13Z" fill="#555566"/>
<path id="Vector_74" d="M50 13H49V14H50V13Z" fill="#555566"/>
<path id="Vector_75" d="M51 13H50V14H51V13Z" fill="#555566"/>
<path id="Vector_76" d="M52 13H51V14H52V13Z" fill="#555566"/>
<path id="Vector_77" d="M40 14H39V15H40V14Z" fill="#555566"/>
<path id="Vector_78" d="M41 14H40V15H41V14Z" fill="#555566"/>
<path id="Vector_79" d="M42 14H41V15H42V14Z" fill="#555566"/>
<path id="Vector_80" d="M43 14H42V15H43V14Z" fill="#555566"/>
<path id="Vector_81" d="M44 14H43V15H44V14Z" fill="#555566"/>
<path id="Vector_82" d="M45 14H44V15H45V14Z" fill="#555566"/>
<path id="Vector_83" d="M46 14H45V15H46V14Z" fill="#555566"/>
<path id="Vector_84" d="M47 14H46V15H47V14Z" fill="#555566"/>
<path id="Vector_85" d="M48 14H47V15H48V14Z" fill="#555566"/>
<path id="Vector_86" d="M49 14H48V15H49V14Z" fill="#555566"/>
<path id="Vector_87" d="M50 14H49V15H50V14Z" fill="#555566"/>
<path id="Vector_88" d="M51 14H50V15H51V14Z" fill="#555566"/>
<path id="Vector_89" d="M39 15H38V16H39V15Z" fill="#555566"/>
<path id="Vector_90" d="M40 15H39V16H40V15Z" fill="#555566"/>
<path id="Vector_91" d="M41 15H40V16H41V15Z" fill="#555566"/>
<path id="Vector_92" d="M42 15H41V16H42V15Z" fill="#555566"/>
<path id="Vector_93" d="M43 15H42V16H43V15Z" fill="#555566"/>
<path id="Vector_94" d="M44 15H43V16H44V15Z" fill="#555566"/>
<path id="Vector_95" d="M45 15H44V16H45V15Z" fill="#555566"/>
<path id="Vector_96" d="M46 15H45V16H46V15Z" fill="#555566"/>
<path id="Vector_97" d="M47 15H46V16H47V15Z" fill="#555566"/>
<path id="Vector_98" d="M48 15H47V16H48V15Z" fill="#555566"/>
<path id="Vector_99" d="M49 15H48V16H49V15Z" fill="#555566"/>
<path id="Vector_100" d="M50 15H49V16H50V15Z" fill="#555566"/>
<path id="Vector_101" d="M51 15H50V16H51V15Z" fill="#555566"/>
<path id="Vector_102" d="M38 16H37V17H38V16Z" fill="#555566"/>
<path id="Vector_103" d="M39 16H38V17H39V16Z" fill="#555566"/>
<path id="Vector_104" d="M40 16H39V17H40V16Z" fill="#555566"/>
<path id="Vector_105" d="M41 16H40V17H41V16Z" fill="#555566"/>
<path id="Vector_106" d="M42 16H41V17H42V16Z" fill="#555566"/>
<path id="Vector_107" d="M43 16H42V17H43V16Z" fill="#555566"/>
<path id="Vector_108" d="M44 16H43V17H44V16Z" fill="#555566"/>
<path id="Vector_109" d="M45 16H44V17H45V16Z" fill="#555566"/>
<path id="Vector_110" d="M46 16H45V17H46V16Z" fill="#555566"/>
<path id="Vector_111" d="M47 16H46V17H47V16Z" fill="#555566"/>
<path id="Vector_112" d="M48 16H47V17H48V16Z" fill="#555566"/>
<path id="Vector_113" d="M49 16H48V17H49V16Z" fill="#555566"/>
<path id="Vector_114" d="M50 16H49V17H50V16Z" fill="#555566"/>
<path id="Vector_115" d="M37 17H36V18H37V17Z" fill="#555566"/>
<path id="Vector_116" d="M38 17H37V18H38V17Z" fill="#555566"/>
<path id="Vector_117" d="M39 17H38V18H39V17Z" fill="#555566"/>
<path id="Vector_118" d="M40 17H39V18H40V17Z" fill="#555566"/>
<path id="Vector_119" d="M41 17H40V18H41V17Z" fill="#555566"/>
<path id="Vector_120" d="M42 17H41V18H42V17Z" fill="#555566"/>
<path id="Vector_121" d="M43 17H42V18H43V17Z" fill="#555566"/>
<path id="Vector_122" d="M44 17H43V18H44V17Z" fill="#555566"/>
<path id="Vector_123" d="M45 17H44V18H45V17Z" fill="#555566"/>
<path id="Vector_124" d="M46 17H45V18H46V17Z" fill="#555566"/>
<path id="Vector_125" d="M47 17H46V18H47V17Z" fill="#555566"/>
<path id="Vector_126" d="M48 17H47V18H48V17Z" fill="#555566"/>
<path id="Vector_127" d="M49 17H48V18H49V17Z" fill="#555566"/>
<path id="Vector_128" d="M36 18H35V19H36V18Z" fill="#555566"/>
<path id="Vector_129" d="M37 18H36V19H37V18Z" fill="#555566"/>
<path id="Vector_130" d="M38 18H37V19H38V18Z" fill="#555566"/>
<path id="Vector_131" d="M39 18H38V19H39V18Z" fill="#555566"/>
<path id="Vector_132" d="M40 18H39V19H40V18Z" fill="#555566"/>
<path id="Vector_133" d="M41 18H40V19H41V18Z" fill="#555566"/>
<path id="Vector_134" d="M42 18H41V19H42V18Z" fill="#555566"/>
<path id="Vector_135" d="M43 18H42V19H43V18Z" fill="#555566"/>
<path id="Vector_136" d="M44 18H43V19H44V18Z" fill="#555566"/>
<path id="Vector_137" d="M45 18H44V19H45V18Z" fill="#555566"/>
<path id="Vector_138" d="M46 18H45V19H46V18Z" fill="#555566"/>
<path id="Vector_139" d="M47 18H46V19H47V18Z" fill="#555566"/>
<path id="Vector_140" d="M48 18H47V19H48V18Z" fill="#555566"/>
<path id="Vector_141" d="M35 19H34V20H35V19Z" fill="#555566"/>
<path id="Vector_142" d="M36 19H35V20H36V19Z" fill="#555566"/>
<path id="Vector_143" d="M37 19H36V20H37V19Z" fill="#555566"/>
<path id="Vector_144" d="M38 19H37V20H38V19Z" fill="#555566"/>
<path id="Vector_145" d="M39 19H38V20H39V19Z" fill="#555566"/>
<path id="Vector_146" d="M40 19H39V20H40V19Z" fill="#555566"/>
<path id="Vector_147" d="M41 19H40V20H41V19Z" fill="#555566"/>
<path id="Vector_148" d="M42 19H41V20H42V19Z" fill="#555566"/>
<path id="Vector_149" d="M43 19H42V20H43V19Z" fill="#555566"/>
<path id="Vector_150" d="M44 19H43V20H44V19Z" fill="#555566"/>
<path id="Vector_151" d="M45 19H44V20H45V19Z" fill="#555566"/>
<path id="Vector_152" d="M46 19H45V20H46V19Z" fill="#555566"/>
<path id="Vector_153" d="M47 19H46V20H47V19Z" fill="#555566"/>
<path id="Vector_154" d="M34 20H33V21H34V20Z" fill="#555566"/>
<path id="Vector_155" d="M35 20H34V21H35V20Z" fill="#555566"/>
<path id="Vector_156" d="M36 20H35V21H36V20Z" fill="#555566"/>
<path id="Vector_157" d="M37 20H36V21H37V20Z" fill="#555566"/>
<path id="Vector_158" d="M38 20H37V21H38V20Z" fill="#555566"/>
<path id="Vector_159" d="M39 20H38V21H39V20Z" fill="#555566"/>
<path id="Vector_160" d="M40 20H39V21H40V20Z" fill="#555566"/>
<path id="Vector_161" d="M41 20H40V21H41V20Z" fill="#555566"/>
<path id="Vector_162" d="M42 20H41V21H42V20Z" fill="#555566"/>
<path id="Vector_163" d="M43 20H42V21H43V20Z" fill="#555566"/>
<path id="Vector_164" d="M44 20H43V21H44V20Z" fill="#555566"/>
<path id="Vector_165" d="M45 20H44V21H45V20Z" fill="#555566"/>
<path id="Vector_166" d="M46 20H45V21H46V20Z" fill="#555566"/>
<path id="Vector_167" d="M33 21H32V22H33V21Z" fill="#555566"/>
<path id="Vector_168" d="M34 21H33V22H34V21Z" fill="#555566"/>
<path id="Vector_169" d="M35 21H34V22H35V21Z" fill="#555566"/>
<path id="Vector_170" d="M36 21H35V22H36V21Z" fill="#555566"/>
<path id="Vector_171" d="M37 21H36V22H37V21Z" fill="#555566"/>
<path id="Vector_172" d="M38 21H37V22H38V21Z" fill="#555566"/>
<path id="Vector_173" d="M39 21H38V22H39V21Z" fill="#555566"/>
<path id="Vector_174" d="M40 21H39V22H40V21Z" fill="#555566"/>
<path id="Vector_175" d="M41 21H40V22H41V21Z" fill="#555566"/>
<path id="Vector_176" d="M42 21H41V22H42V21Z" fill="#555566"/>
<path id="Vector_177" d="M43 21H42V22H43V21Z" fill="#555566"/>
<path id="Vector_178" d="M44 21H43V22H44V21Z" fill="#555566"/>
<path id="Vector_179" d="M45 21H44V22H45V21Z" fill="#555566"/>
<path id="Vector_180" d="M32 22H31V23H32V22Z" fill="#555566"/>
<path id="Vector_181" d="M33 22H32V23H33V22Z" fill="#555566"/>
<path id="Vector_182" d="M34 22H33V23H34V22Z" fill="#555566"/>
<path id="Vector_183" d="M35 22H34V23H35V22Z" fill="#555566"/>
<path id="Vector_184" d="M36 22H35V23H36V22Z" fill="#555566"/>
<path id="Vector_185" d="M37 22H36V23H37V22Z" fill="#555566"/>
<path id="Vector_186" d="M38 22H37V23H38V22Z" fill="#555566"/>
<path id="Vector_187" d="M39 22H38V23H39V22Z" fill="#555566"/>
<path id="Vector_188" d="M40 22H39V23H40V22Z" fill="#555566"/>
<path id="Vector_189" d="M41 22H40V23H41V22Z" fill="#555566"/>
<path id="Vector_190" d="M42 22H41V23H42V22Z" fill="#555566"/>
<path id="Vector_191" d="M43 22H42V23H43V22Z" fill="#555566"/>
<path id="Vector_192" d="M44 22H43V23H44V22Z" fill="#555566"/>
<path id="Vector_193" d="M31 23H30V24H31V23Z" fill="#555566"/>
<path id="Vector_194" d="M32 23H31V24H32V23Z" fill="#555566"/>
<path id="Vector_195" d="M33 23H32V24H33V23Z" fill="#555566"/>
<path id="Vector_196" d="M34 23H33V24H34V23Z" fill="#555566"/>
<path id="Vector_197" d="M35 23H34V24H35V23Z" fill="#555566"/>
<path id="Vector_198" d="M36 23H35V24H36V23Z" fill="#555566"/>
<path id="Vector_199" d="M37 23H36V24H37V23Z" fill="#555566"/>
<path id="Vector_200" d="M38 23H37V24H38V23Z" fill="#555566"/>
<path id="Vector_201" d="M39 23H38V24H39V23Z" fill="#555566"/>
<path id="Vector_202" d="M40 23H39V24H40V23Z" fill="#555566"/>
<path id="Vector_203" d="M41 23H40V24H41V23Z" fill="#555566"/>
<path id="Vector_204" d="M42 23H41V24H42V23Z" fill="#555566"/>
<path id="Vector_205" d="M43 23H42V24H43V23Z" fill="#555566"/>
<path id="Vector_206" d="M30 24H29V25H30V24Z" fill="#555566"/>
<path id="Vector_207" d="M31 24H30V25H31V24Z" fill="#555566"/>
<path id="Vector_208" d="M32 24H31V25H32V24Z" fill="#555566"/>
<path id="Vector_209" d="M33 24H32V25H33V24Z" fill="#555566"/>
<path id="Vector_210" d="M34 24H33V25H34V24Z" fill="#555566"/>
<path id="Vector_211" d="M35 24H34V25H35V24Z" fill="#555566"/>
<path id="Vector_212" d="M36 24H35V25H36V24Z" fill="#555566"/>
<path id="Vector_213" d="M37 24H36V25H37V24Z" fill="#555566"/>
<path id="Vector_214" d="M38 24H37V25H38V24Z" fill="#555566"/>
<path id="Vector_215" d="M39 24H38V25H39V24Z" fill="#555566"/>
<path id="Vector_216" d="M40 24H39V25H40V24Z" fill="#555566"/>
<path id="Vector_217" d="M41 24H40V25H41V24Z" fill="#555566"/>
<path id="Vector_218" d="M42 24H41V25H42V24Z" fill="#555566"/>
<path id="Vector_219" d="M29 25H28V26H29V25Z" fill="#555566"/>
<path id="Vector_220" d="M30 25H29V26H30V25Z" fill="#555566"/>
<path id="Vector_221" d="M31 25H30V26H31V25Z" fill="#555566"/>
<path id="Vector_222" d="M32 25H31V26H32V25Z" fill="#555566"/>
<path id="Vector_223" d="M33 25H32V26H33V25Z" fill="#555566"/>
<path id="Vector_224" d="M34 25H33V26H34V25Z" fill="#555566"/>
<path id="Vector_225" d="M35 25H34V26H35V25Z" fill="#555566"/>
<path id="Vector_226" d="M36 25H35V26H36V25Z" fill="#555566"/>
<path id="Vector_227" d="M37 25H36V26H37V25Z" fill="#555566"/>
<path id="Vector_228" d="M38 25H37V26H38V25Z" fill="#555566"/>
<path id="Vector_229" d="M39 25H38V26H39V25Z" fill="#555566"/>
<path id="Vector_230" d="M40 25H39V26H40V25Z" fill="#555566"/>
<path id="Vector_231" d="M41 25H40V26H41V25Z" fill="#555566"/>
<path id="Vector_232" d="M28 26H27V27H28V26Z" fill="#555566"/>
<path id="Vector_233" d="M29 26H28V27H29V26Z" fill="#555566"/>
<path id="Vector_234" d="M30 26H29V27H30V26Z" fill="#555566"/>
<path id="Vector_235" d="M31 26H30V27H31V26Z" fill="#555566"/>
<path id="Vector_236" d="M32 26H31V27H32V26Z" fill="#555566"/>
<path id="Vector_237" d="M33 26H32V27H33V26Z" fill="#555566"/>
<path id="Vector_238" d="M34 26H33V27H34V26Z" fill="#555566"/>
<path id="Vector_239" d="M35 26H34V27H35V26Z" fill="#555566"/>
<path id="Vector_240" d="M36 26H35V27H36V26Z" fill="#555566"/>
<path id="Vector_241" d="M37 26H36V27H37V26Z" fill="#555566"/>
<path id="Vector_242" d="M38 26H37V27H38V26Z" fill="#555566"/>
<path id="Vector_243" d="M39 26H38V27H39V26Z" fill="#555566"/>
<path id="Vector_244" d="M40 26H39V27H40V26Z" fill="#555566"/>
<path id="Vector_245" d="M27 27H26V28H27V27Z" fill="#555566"/>
<path id="Vector_246" d="M28 27H27V28H28V27Z" fill="#555566"/>
<path id="Vector_247" d="M29 27H28V28H29V27Z" fill="#555566"/>
<path id="Vector_248" d="M30 27H29V28H30V27Z" fill="#555566"/>
<path id="Vector_249" d="M31 27H30V28H31V27Z" fill="#555566"/>
<path id="Vector_250" d="M32 27H31V28H32V27Z" fill="#555566"/>
<path id="Vector_251" d="M33 27H32V28H33V27Z" fill="#555566"/>
<path id="Vector_252" d="M34 27H33V28H34V27Z" fill="#555566"/>
<path id="Vector_253" d="M35 27H34V28H35V27Z" fill="#555566"/>
<path id="Vector_254" d="M36 27H35V28H36V27Z" fill="#555566"/>
<path id="Vector_255" d="M37 27H36V28H37V27Z" fill="#555566"/>
<path id="Vector_256" d="M38 27H37V28H38V27Z" fill="#555566"/>
<path id="Vector_257" d="M39 27H38V28H39V27Z" fill="#555566"/>
<path id="Vector_258" d="M26 28H25V29H26V28Z" fill="#555566"/>
<path id="Vector_259" d="M27 28H26V29H27V28Z" fill="#555566"/>
<path id="Vector_260" d="M28 28H27V29H28V28Z" fill="#555566"/>
<path id="Vector_261" d="M29 28H28V29H29V28Z" fill="#555566"/>
<path id="Vector_262" d="M30 28H29V29H30V28Z" fill="#555566"/>
<path id="Vector_263" d="M31 28H30V29H31V28Z" fill="#555566"/>
<path id="Vector_264" d="M32 28H31V29H32V28Z" fill="#555566"/>
<path id="Vector_265" d="M33 28H32V29H33V28Z" fill="#555566"/>
<path id="Vector_266" d="M34 28H33V29H34V28Z" fill="#555566"/>
<path id="Vector_267" d="M35 28H34V29H35V28Z" fill="#555566"/>
<path id="Vector_268" d="M36 28H35V29H36V28Z" fill="#555566"/>
<path id="Vector_269" d="M37 28H36V29H37V28Z" fill="#555566"/>
<path id="Vector_270" d="M38 28H37V29H38V28Z" fill="#555566"/>
<path id="Vector_271" d="M25 29H24V30H25V29Z" fill="#555566"/>
<path id="Vector_272" d="M26 29H25V30H26V29Z" fill="#555566"/>
<path id="Vector_273" d="M27 29H26V30H27V29Z" fill="#555566"/>
<path id="Vector_274" d="M28 29H27V30H28V29Z" fill="#555566"/>
<path id="Vector_275" d="M29 29H28V30H29V29Z" fill="#555566"/>
<path id="Vector_276" d="M30 29H29V30H30V29Z" fill="#555566"/>
<path id="Vector_277" d="M31 29H30V30H31V29Z" fill="#555566"/>
<path id="Vector_278" d="M32 29H31V30H32V29Z" fill="#555566"/>
<path id="Vector_279" d="M33 29H32V30H33V29Z" fill="#555566"/>
<path id="Vector_280" d="M34 29H33V30H34V29Z" fill="#555566"/>
<path id="Vector_281" d="M35 29H34V30H35V29Z" fill="#555566"/>
<path id="Vector_282" d="M36 29H35V30H36V29Z" fill="#555566"/>
<path id="Vector_283" d="M37 29H36V30H37V29Z" fill="#555566"/>
<path id="Vector_284" d="M24 30H23V31H24V30Z" fill="#555566"/>
<path id="Vector_285" d="M25 30H24V31H25V30Z" fill="#555566"/>
<path id="Vector_286" d="M26 30H25V31H26V30Z" fill="#555566"/>
<path id="Vector_287" d="M27 30H26V31H27V30Z" fill="#555566"/>
<path id="Vector_288" d="M28 30H27V31H28V30Z" fill="#555566"/>
<path id="Vector_289" d="M29 30H28V31H29V30Z" fill="#555566"/>
<path id="Vector_290" d="M30 30H29V31H30V30Z" fill="#555566"/>
<path id="Vector_291" d="M31 30H30V31H31V30Z" fill="#555566"/>
<path id="Vector_292" d="M32 30H31V31H32V30Z" fill="#555566"/>
<path id="Vector_293" d="M33 30H32V31H33V30Z" fill="#555566"/>
<path id="Vector_294" d="M34 30H33V31H34V30Z" fill="#555566"/>
<path id="Vector_295" d="M35 30H34V31H35V30Z" fill="#555566"/>
<path id="Vector_296" d="M36 30H35V31H36V30Z" fill="#555566"/>
<path id="Vector_297" d="M23 31H22V32H23V31Z" fill="#555566"/>
<path id="Vector_298" d="M24 31H23V32H24V31Z" fill="#555566"/>
<path id="Vector_299" d="M25 31H24V32H25V31Z" fill="#555566"/>
<path id="Vector_300" d="M26 31H25V32H26V31Z" fill="#555566"/>
<path id="Vector_301" d="M27 31H26V32H27V31Z" fill="#555566"/>
<path id="Vector_302" d="M28 31H27V32H28V31Z" fill="#555566"/>
<path id="Vector_303" d="M29 31H28V32H29V31Z" fill="#555566"/>
<path id="Vector_304" d="M30 31H29V32H30V31Z" fill="#555566"/>
<path id="Vector_305" d="M31 31H30V32H31V31Z" fill="#555566"/>
<path id="Vector_306" d="M32 31H31V32H32V31Z" fill="#555566"/>
<path id="Vector_307" d="M33 31H32V32H33V31Z" fill="#555566"/>
<path id="Vector_308" d="M34 31H33V32H34V31Z" fill="#555566"/>
<path id="Vector_309" d="M35 31H34V32H35V31Z" fill="#555566"/>
<path id="Vector_310" d="M22 32H21V33H22V32Z" fill="#555566"/>
<path id="Vector_311" d="M23 32H22V33H23V32Z" fill="#555566"/>
<path id="Vector_312" d="M24 32H23V33H24V32Z" fill="#555566"/>
<path id="Vector_313" d="M25 32H24V33H25V32Z" fill="#555566"/>
<path id="Vector_314" d="M26 32H25V33H26V32Z" fill="#555566"/>
<path id="Vector_315" d="M27 32H26V33H27V32Z" fill="#555566"/>
<path id="Vector_316" d="M28 32H27V33H28V32Z" fill="#555566"/>
<path id="Vector_317" d="M29 32H28V33H29V32Z" fill="#555566"/>
<path id="Vector_318" d="M30 32H29V33H30V32Z" fill="#555566"/>
<path id="Vector_319" d="M31 32H30V33H31V32Z" fill="#555566"/>
<path id="Vector_320" d="M32 32H31V33H32V32Z" fill="#555566"/>
<path id="Vector_321" d="M33 32H32V33H33V32Z" fill="#555566"/>
<path id="Vector_322" d="M34 32H33V33H34V32Z" fill="#555566"/>
<path id="Vector_323" d="M21 33H20V34H21V33Z" fill="#555566"/>
<path id="Vector_324" d="M22 33H21V34H22V33Z" fill="#555566"/>
<path id="Vector_325" d="M23 33H22V34H23V33Z" fill="#555566"/>
<path id="Vector_326" d="M24 33H23V34H24V33Z" fill="#555566"/>
<path id="Vector_327" d="M25 33H24V34H25V33Z" fill="#555566"/>
<path id="Vector_328" d="M26 33H25V34H26V33Z" fill="#555566"/>
<path id="Vector_329" d="M27 33H26V34H27V33Z" fill="#555566"/>
<path id="Vector_330" d="M28 33H27V34H28V33Z" fill="#555566"/>
<path id="Vector_331" d="M29 33H28V34H29V33Z" fill="#555566"/>
<path id="Vector_332" d="M30 33H29V34H30V33Z" fill="#555566"/>
<path id="Vector_333" d="M31 33H30V34H31V33Z" fill="#555566"/>
<path id="Vector_334" d="M32 33H31V34H32V33Z" fill="#555566"/>
<path id="Vector_335" d="M33 33H32V34H33V33Z" fill="#555566"/>
<path id="Vector_336" d="M12 34H11V35H12V34Z" fill="#555566"/>
<path id="Vector_337" d="M13 34H12V35H13V34Z" fill="#555566"/>
<path id="Vector_338" d="M14 34H13V35H14V34Z" fill="#555566"/>
<path id="Vector_339" d="M15 34H14V35H15V34Z" fill="#555566"/>
<path id="Vector_340" d="M20 34H19V35H20V34Z" fill="#555566"/>
<path id="Vector_341" d="M21 34H20V35H21V34Z" fill="#555566"/>
<path id="Vector_342" d="M22 34H21V35H22V34Z" fill="#555566"/>
<path id="Vector_343" d="M23 34H22V35H23V34Z" fill="#555566"/>
<path id="Vector_344" d="M24 34H23V35H24V34Z" fill="#555566"/>
<path id="Vector_345" d="M25 34H24V35H25V34Z" fill="#555566"/>
<path id="Vector_346" d="M26 34H25V35H26V34Z" fill="#555566"/>
<path id="Vector_347" d="M27 34H26V35H27V34Z" fill="#555566"/>
<path id="Vector_348" d="M28 34H27V35H28V34Z" fill="#555566"/>
<path id="Vector_349" d="M29 34H28V35H29V34Z" fill="#555566"/>
<path id="Vector_350" d="M30 34H29V35H30V34Z" fill="#555566"/>
<path id="Vector_351" d="M31 34H30V35H31V34Z" fill="#555566"/>
<path id="Vector_352" d="M32 34H31V35H32V34Z" fill="#555566"/>
<path id="Vector_353" d="M13 35H12V36H13V35Z" fill="#555566"/>
<path id="Vector_354" d="M14 35H13V36H14V35Z" fill="#555566"/>
<path id="Vector_355" d="M15 35H14V36H15V35Z" fill="#555566"/>
<path id="Vector_356" d="M16 35H15V36H16V35Z" fill="#555566"/>
<path id="Vector_357" d="M20 35H19V36H20V35Z" fill="#555566"/>
<path id="Vector_358" d="M21 35H20V36H21V35Z" fill="#555566"/>
<path id="Vector_359" d="M22 35H21V36H22V35Z" fill="#555566"/>
<path id="Vector_360" d="M23 35H22V36H23V35Z" fill="#555566"/>
<path id="Vector_361" d="M24 35H23V36H24V35Z" fill="#555566"/>
<path id="Vector_362" d="M25 35H24V36H25V35Z" fill="#555566"/>
<path id="Vector_363" d="M26 35H25V36H26V35Z" fill="#555566"/>
<path id="Vector_364" d="M27 35H26V36H27V35Z" fill="#555566"/>
<path id="Vector_365" d="M28 35H27V36H28V35Z" fill="#555566"/>
<path id="Vector_366" d="M29 35H28V36H29V35Z" fill="#555566"/>
<path id="Vector_367" d="M30 35H29V36H30V35Z" fill="#555566"/>
<path id="Vector_368" d="M31 35H30V36H31V35Z" fill="#555566"/>
<path id="Vector_369" d="M15 36H14V37H15V36Z" fill="#555566"/>
<path id="Vector_370" d="M16 36H15V37H16V36Z" fill="#555566"/>
<path id="Vector_371" d="M17 36H16V37H17V36Z" fill="#555566"/>
<path id="Vector_372" d="M20 36H19V37H20V36Z" fill="#555566"/>
<path id="Vector_373" d="M21 36H20V37H21V36Z" fill="#555566"/>
<path id="Vector_374" d="M22 36H21V37H22V36Z" fill="#555566"/>
<path id="Vector_375" d="M23 36H22V37H23V36Z" fill="#555566"/>
<path id="Vector_376" d="M24 36H23V37H24V36Z" fill="#555566"/>
<path id="Vector_377" d="M25 36H24V37H25V36Z" fill="#555566"/>
<path id="Vector_378" d="M26 36H25V37H26V36Z" fill="#555566"/>
<path id="Vector_379" d="M27 36H26V37H27V36Z" fill="#555566"/>
<path id="Vector_380" d="M28 36H27V37H28V36Z" fill="#555566"/>
<path id="Vector_381" d="M29 36H28V37H29V36Z" fill="#555566"/>
<path id="Vector_382" d="M30 36H29V37H30V36Z" fill="#555566"/>
<path id="Vector_383" d="M16 37H15V38H16V37Z" fill="#555566"/>
<path id="Vector_384" d="M17 37H16V38H17V37Z" fill="#555566"/>
<path id="Vector_385" d="M18 37H17V38H18V37Z" fill="#555566"/>
<path id="Vector_386" d="M19 37H18V38H19V37Z" fill="#555566"/>
<path id="Vector_387" d="M20 37H19V38H20V37Z" fill="#555566"/>
<path id="Vector_388" d="M21 37H20V38H21V37Z" fill="#555566"/>
<path id="Vector_389" d="M22 37H21V38H22V37Z" fill="#555566"/>
<path id="Vector_390" d="M23 37H22V38H23V37Z" fill="#555566"/>
<path id="Vector_391" d="M24 37H23V38H24V37Z" fill="#555566"/>
<path id="Vector_392" d="M25 37H24V38H25V37Z" fill="#555566"/>
<path id="Vector_393" d="M26 37H25V38H26V37Z" fill="#555566"/>
<path id="Vector_394" d="M27 37H26V38H27V37Z" fill="#555566"/>
<path id="Vector_395" d="M28 37H27V38H28V37Z" fill="#555566"/>
<path id="Vector_396" d="M29 37H28V38H29V37Z" fill="#555566"/>
<path id="Vector_397" d="M16 38H15V39H16V38Z" fill="#555566"/>
<path id="Vector_398" d="M17 38H16V39H17V38Z" fill="#555566"/>
<path id="Vector_399" d="M18 38H17V39H18V38Z" fill="#555566"/>
<path id="Vector_400" d="M19 38H18V39H19V38Z" fill="#555566"/>
<path id="Vector_401" d="M20 38H19V39H20V38Z" fill="#555566"/>
<path id="Vector_402" d="M21 38H20V39H21V38Z" fill="#555566"/>
<path id="Vector_403" d="M22 38H21V39H22V38Z" fill="#555566"/>
<path id="Vector_404" d="M23 38H22V39H23V38Z" fill="#555566"/>
<path id="Vector_405" d="M24 38H23V39H24V38Z" fill="#555566"/>
<path id="Vector_406" d="M25 38H24V39H25V38Z" fill="#555566"/>
<path id="Vector_407" d="M26 38H25V39H26V38Z" fill="#555566"/>
<path id="Vector_408" d="M27 38H26V39H27V38Z" fill="#555566"/>
<path id="Vector_409" d="M28 38H27V39H28V38Z" fill="#555566"/>
<path id="Vector_410" d="M17 39H16V40H17V39Z" fill="#555566"/>
<path id="Vector_411" d="M18 39H17V40H18V39Z" fill="#555566"/>
<path id="Vector_412" d="M19 39H18V40H19V39Z" fill="#555566"/>
<path id="Vector_413" d="M20 39H19V40H20V39Z" fill="#555566"/>
<path id="Vector_414" d="M21 39H20V40H21V39Z" fill="#555566"/>
<path id="Vector_415" d="M22 39H21V40H22V39Z" fill="#555566"/>
<path id="Vector_416" d="M23 39H22V40H23V39Z" fill="#555566"/>
<path id="Vector_417" d="M24 39H23V40H24V39Z" fill="#555566"/>
<path id="Vector_418" d="M25 39H24V40H25V39Z" fill="#555566"/>
<path id="Vector_419" d="M26 39H25V40H26V39Z" fill="#555566"/>
<path id="Vector_420" d="M27 39H26V40H27V39Z" fill="#555566"/>
<path id="Vector_421" d="M17 40H16V41H17V40Z" fill="#555566"/>
<path id="Vector_422" d="M18 40H17V41H18V40Z" fill="#555566"/>
<path id="Vector_423" d="M19 40H18V41H19V40Z" fill="#555566"/>
<path id="Vector_424" d="M20 40H19V41H20V40Z" fill="#555566"/>
<path id="Vector_425" d="M21 40H20V41H21V40Z" fill="#555566"/>
<path id="Vector_426" d="M22 40H21V41H22V40Z" fill="#555566"/>
<path id="Vector_427" d="M23 40H22V41H23V40Z" fill="#555566"/>
<path id="Vector_428" d="M24 40H23V41H24V40Z" fill="#555566"/>
<path id="Vector_429" d="M25 40H24V41H25V40Z" fill="#555566"/>
<path id="Vector_430" d="M26 40H25V41H26V40Z" fill="#555566"/>
<path id="Vector_431" d="M16 41H15V42H16V41Z" fill="#555566"/>
<path id="Vector_432" d="M17 41H16V42H17V41Z" fill="#555566"/>
<path id="Vector_433" d="M18 41H17V42H18V41Z" fill="#555566"/>
<path id="Vector_434" d="M19 41H18V42H19V41Z" fill="#555566"/>
<path id="Vector_435" d="M20 41H19V42H20V41Z" fill="#555566"/>
<path id="Vector_436" d="M21 41H20V42H21V41Z" fill="#555566"/>
<path id="Vector_437" d="M22 41H21V42H22V41Z" fill="#555566"/>
<path id="Vector_438" d="M23 41H22V42H23V41Z" fill="#555566"/>
<path id="Vector_439" d="M15 42H14V43H15V42Z" fill="#555566"/>
<path id="Vector_440" d="M16 42H15V43H16V42Z" fill="#555566"/>
<path id="Vector_441" d="M17 42H16V43H17V42Z" fill="#555566"/>
<path id="Vector_442" d="M18 42H17V43H18V42Z" fill="#555566"/>
<path id="Vector_443" d="M19 42H18V43H19V42Z" fill="#555566"/>
<path id="Vector_444" d="M20 42H19V43H20V42Z" fill="#555566"/>
<path id="Vector_445" d="M21 42H20V43H21V42Z" fill="#555566"/>
<path id="Vector_446" d="M22 42H21V43H22V42Z" fill="#555566"/>
<path id="Vector_447" d="M23 42H22V43H23V42Z" fill="#555566"/>
<path id="Vector_448" d="M14 43H13V44H14V43Z" fill="#555566"/>
<path id="Vector_449" d="M15 43H14V44H15V43Z" fill="#555566"/>
<path id="Vector_450" d="M16 43H15V44H16V43Z" fill="#555566"/>
<path id="Vector_451" d="M17 43H16V44H17V43Z" fill="#555566"/>
<path id="Vector_452" d="M18 43H17V44H18V43Z" fill="#555566"/>
<path id="Vector_453" d="M19 43H18V44H19V43Z" fill="#555566"/>
<path id="Vector_454" d="M20 43H19V44H20V43Z" fill="#555566"/>
<path id="Vector_455" d="M21 43H20V44H21V43Z" fill="#555566"/>
<path id="Vector_456" d="M22 43H21V44H22V43Z" fill="#555566"/>
<path id="Vector_457" d="M23 43H22V44H23V43Z" fill="#555566"/>
<path id="Vector_458" d="M24 43H23V44H24V43Z" fill="#555566"/>
<path id="Vector_459" d="M14 44H13V45H14V44Z" fill="#555566"/>
<path id="Vector_460" d="M15 44H14V45H15V44Z" fill="#555566"/>
<path id="Vector_461" d="M16 44H15V45H16V44Z" fill="#555566"/>
<path id="Vector_462" d="M17 44H16V45H17V44Z" fill="#555566"/>
<path id="Vector_463" d="M18 44H17V45H18V44Z" fill="#555566"/>
<path id="Vector_464" d="M19 44H18V45H19V44Z" fill="#555566"/>
<path id="Vector_465" d="M22 44H21V45H22V44Z" fill="#555566"/>
<path id="Vector_466" d="M23 44H22V45H23V44Z" fill="#555566"/>
<path id="Vector_467" d="M24 44H23V45H24V44Z" fill="#555566"/>
<path id="Vector_468" d="M25 44H24V45H25V44Z" fill="#555566"/>
<path id="Vector_469" d="M13 45H12V46H13V45Z" fill="#555566"/>
<path id="Vector_470" d="M14 45H13V46H14V45Z" fill="#555566"/>
<path id="Vector_471" d="M15 45H14V46H15V45Z" fill="#555566"/>
<path id="Vector_472" d="M16 45H15V46H16V45Z" fill="#555566"/>
<path id="Vector_473" d="M17 45H16V46H17V45Z" fill="#555566"/>
<path id="Vector_474" d="M18 45H17V46H18V45Z" fill="#555566"/>
<path id="Vector_475" d="M23 45H22V46H23V45Z" fill="#555566"/>
<path id="Vector_476" d="M24 45H23V46H24V45Z" fill="#555566"/>
<path id="Vector_477" d="M25 45H24V46H25V45Z" fill="#555566"/>
<path id="Vector_478" d="M26 45H25V46H26V45Z" fill="#555566"/>
<path id="Vector_479" d="M12 46H11V47H12V46Z" fill="#555566"/>
<path id="Vector_480" d="M13 46H12V47H13V46Z" fill="#555566"/>
<path id="Vector_481" d="M14 46H13V47H14V46Z" fill="#555566"/>
<path id="Vector_482" d="M15 46H14V47H15V46Z" fill="#555566"/>
<path id="Vector_483" d="M16 46H15V47H16V46Z" fill="#555566"/>
<path id="Vector_484" d="M17 46H16V47H17V46Z" fill="#555566"/>
<path id="Vector_485" d="M25 46H24V47H25V46Z" fill="#555566"/>
<path id="Vector_486" d="M26 46H25V47H26V46Z" fill="#555566"/>
<path id="Vector_487" d="M8 47H7V48H8V47Z" fill="#555566"/>
<path id="Vector_488" d="M9 47H8V48H9V47Z" fill="#555566"/>
<path id="Vector_489" d="M10 47H9V48H10V47Z" fill="#555566"/>
<path id="Vector_490" d="M11 47H10V48H11V47Z" fill="#555566"/>
<path id="Vector_491" d="M12 47H11V48H12V47Z" fill="#555566"/>
<path id="Vector_492" d="M13 47H12V48H13V47Z" fill="#555566"/>
<path id="Vector_493" d="M14 47H13V48H14V47Z" fill="#555566"/>
<path id="Vector_494" d="M15 47H14V48H15V47Z" fill="#555566"/>
<path id="Vector_495" d="M25 47H24V48H25V47Z" fill="#555566"/>
<path id="Vector_496" d="M26 47H25V48H26V47Z" fill="#555566"/>
<path id="Vector_497" d="M7 48H6V49H7V48Z" fill="#555566"/>
<path id="Vector_498" d="M8 48H7V49H8V48Z" fill="#555566"/>
<path id="Vector_499" d="M9 48H8V49H9V48Z" fill="#555566"/>
<path id="Vector_500" d="M10 48H9V49H10V48Z" fill="#555566"/>
<path id="Vector_501" d="M11 48H10V49H11V48Z" fill="#555566"/>
<path id="Vector_502" d="M12 48H11V49H12V48Z" fill="#555566"/>
<path id="Vector_503" d="M13 48H12V49H13V48Z" fill="#555566"/>
<path id="Vector_504" d="M14 48H13V49H14V48Z" fill="#555566"/>
<path id="Vector_505" d="M26 48H25V49H26V48Z" fill="#555566"/>
<path id="Vector_506" d="M7 49H6V50H7V49Z" fill="#555566"/>
<path id="Vector_507" d="M8 49H7V50H8V49Z" fill="#555566"/>
<path id="Vector_508" d="M9 49H8V50H9V49Z" fill="#555566"/>
<path id="Vector_509" d="M10 49H9V50H10V49Z" fill="#555566"/>
<path id="Vector_510" d="M11 49H10V50H11V49Z" fill="#555566"/>
<path id="Vector_511" d="M12 49H11V50H12V49Z" fill="#555566"/>
<path id="Vector_512" d="M13 49H12V50H13V49Z" fill="#555566"/>
<path id="Vector_513" d="M7 50H6V51H7V50Z" fill="#555566"/>
<path id="Vector_514" d="M8 50H7V51H8V50Z" fill="#555566"/>
<path id="Vector_515" d="M9 50H8V51H9V50Z" fill="#555566"/>
<path id="Vector_516" d="M10 50H9V51H10V50Z" fill="#555566"/>
<path id="Vector_517" d="M11 50H10V51H11V50Z" fill="#555566"/>
<path id="Vector_518" d="M12 50H11V51H12V50Z" fill="#555566"/>
<path id="Vector_519" d="M13 50H12V51H13V50Z" fill="#555566"/>
<path id="Vector_520" d="M7 51H6V52H7V51Z" fill="#555566"/>
<path id="Vector_521" d="M8 51H7V52H8V51Z" fill="#555566"/>
<path id="Vector_522" d="M9 51H8V52H9V51Z" fill="#555566"/>
<path id="Vector_523" d="M10 51H9V52H10V51Z" fill="#555566"/>
<path id="Vector_524" d="M11 51H10V52H11V51Z" fill="#555566"/>
<path id="Vector_525" d="M12 51H11V52H12V51Z" fill="#555566"/>
<path id="Vector_526" d="M13 51H12V52H13V51Z" fill="#555566"/>
<path id="Vector_527" d="M7 52H6V53H7V52Z" fill="#555566"/>
<path id="Vector_528" d="M8 52H7V53H8V52Z" fill="#555566"/>
<path id="Vector_529" d="M9 52H8V53H9V52Z" fill="#555566"/>
<path id="Vector_530" d="M10 52H9V53H10V52Z" fill="#555566"/>
<path id="Vector_531" d="M11 52H10V53H11V52Z" fill="#555566"/>
<path id="Vector_532" d="M12 52H11V53H12V52Z" fill="#555566"/>
<path id="Vector_533" d="M13 52H12V53H13V52Z" fill="#555566"/>
<path id="Vector_534" d="M8 53H7V54H8V53Z" fill="#555566"/>
<path id="Vector_535" d="M9 53H8V54H9V53Z" fill="#555566"/>
<path id="Vector_536" d="M10 53H9V54H10V53Z" fill="#555566"/>
<path id="Vector_537" d="M11 53H10V54H11V53Z" fill="#555566"/>
<path id="Vector_538" d="M12 53H11V54H12V53Z" fill="#555566"/>
</g>
</svg>
