<svg width="60" height="60" viewBox="0 0 60 60" fill="none" xmlns="http://www.w3.org/2000/svg">
<g id="equipment/icon">
<path id="Vector" d="M21 11H20V12H21V11Z" fill="#555566"/>
<path id="Vector_2" d="M22 11H21V12H22V11Z" fill="#555566"/>
<path id="Vector_3" d="M23 11H22V12H23V11Z" fill="#555566"/>
<path id="Vector_4" d="M24 11H23V12H24V11Z" fill="#555566"/>
<path id="Vector_5" d="M25 11H24V12H25V11Z" fill="#555566"/>
<path id="Vector_6" d="M39 11H38V12H39V11Z" fill="#555566"/>
<path id="Vector_7" d="M40 11H39V12H40V11Z" fill="#555566"/>
<path id="Vector_8" d="M41 11H40V12H41V11Z" fill="#555566"/>
<path id="Vector_9" d="M19 12H18V13H19V12Z" fill="#555566"/>
<path id="Vector_10" d="M20 12H19V13H20V12Z" fill="#555566"/>
<path id="Vector_11" d="M21 12H20V13H21V12Z" fill="#555566"/>
<path id="Vector_12" d="M22 12H21V13H22V12Z" fill="#555566"/>
<path id="Vector_13" d="M23 12H22V13H23V12Z" fill="#555566"/>
<path id="Vector_14" d="M24 12H23V13H24V12Z" fill="#555566"/>
<path id="Vector_15" d="M25 12H24V13H25V12Z" fill="#555566"/>
<path id="Vector_16" d="M26 12H25V13H26V12Z" fill="#555566"/>
<path id="Vector_17" d="M27 12H26V13H27V12Z" fill="#555566"/>
<path id="Vector_18" d="M28 12H27V13H28V12Z" fill="#555566"/>
<path id="Vector_19" d="M29 12H28V13H29V12Z" fill="#555566"/>
<path id="Vector_20" d="M30 12H29V13H30V12Z" fill="#555566"/>
<path id="Vector_21" d="M34 12H33V13H34V12Z" fill="#555566"/>
<path id="Vector_22" d="M35 12H34V13H35V12Z" fill="#555566"/>
<path id="Vector_23" d="M36 12H35V13H36V12Z" fill="#555566"/>
<path id="Vector_24" d="M37 12H36V13H37V12Z" fill="#555566"/>
<path id="Vector_25" d="M38 12H37V13H38V12Z" fill="#555566"/>
<path id="Vector_26" d="M39 12H38V13H39V12Z" fill="#555566"/>
<path id="Vector_27" d="M40 12H39V13H40V12Z" fill="#555566"/>
<path id="Vector_28" d="M41 12H40V13H41V12Z" fill="#555566"/>
<path id="Vector_29" d="M42 12H41V13H42V12Z" fill="#555566"/>
<path id="Vector_30" d="M43 12H42V13H43V12Z" fill="#555566"/>
<path id="Vector_31" d="M18 13H17V14H18V13Z" fill="#555566"/>
<path id="Vector_32" d="M19 13H18V14H19V13Z" fill="#555566"/>
<path id="Vector_33" d="M29 13H28V14H29V13Z" fill="#555566"/>
<path id="Vector_34" d="M30 13H29V14H30V13Z" fill="#555566"/>
<path id="Vector_35" d="M31 13H30V14H31V13Z" fill="#555566"/>
<path id="Vector_36" d="M32 13H31V14H32V13Z" fill="#555566"/>
<path id="Vector_37" d="M33 13H32V14H33V13Z" fill="#555566"/>
<path id="Vector_38" d="M34 13H33V14H34V13Z" fill="#555566"/>
<path id="Vector_39" d="M35 13H34V14H35V13Z" fill="#555566"/>
<path id="Vector_40" d="M42 13H41V14H42V13Z" fill="#555566"/>
<path id="Vector_41" d="M43 13H42V14H43V13Z" fill="#555566"/>
<path id="Vector_42" d="M44 13H43V14H44V13Z" fill="#555566"/>
<path id="Vector_43" d="M45 13H44V14H45V13Z" fill="#555566"/>
<path id="Vector_44" d="M17 14H16V15H17V14Z" fill="#555566"/>
<path id="Vector_45" d="M18 14H17V15H18V14Z" fill="#555566"/>
<path id="Vector_46" d="M31 14H30V15H31V14Z" fill="#555566"/>
<path id="Vector_47" d="M32 14H31V15H32V14Z" fill="#555566"/>
<path id="Vector_48" d="M33 14H32V15H33V14Z" fill="#555566"/>
<path id="Vector_49" d="M44 14H43V15H44V14Z" fill="#555566"/>
<path id="Vector_50" d="M45 14H44V15H45V14Z" fill="#555566"/>
<path id="Vector_51" d="M46 14H45V15H46V14Z" fill="#555566"/>
<path id="Vector_52" d="M16 15H15V16H16V15Z" fill="#555566"/>
<path id="Vector_53" d="M17 15H16V16H17V15Z" fill="#555566"/>
<path id="Vector_54" d="M45 15H44V16H45V15Z" fill="#555566"/>
<path id="Vector_55" d="M46 15H45V16H46V15Z" fill="#555566"/>
<path id="Vector_56" d="M16 16H15V17H16V16Z" fill="#555566"/>
<path id="Vector_57" d="M46 16H45V17H46V16Z" fill="#555566"/>
<path id="Vector_58" d="M47 16H46V17H47V16Z" fill="#555566"/>
<path id="Vector_59" d="M15 17H14V18H15V17Z" fill="#555566"/>
<path id="Vector_60" d="M16 17H15V18H16V17Z" fill="#555566"/>
<path id="Vector_61" d="M46 17H45V18H46V17Z" fill="#555566"/>
<path id="Vector_62" d="M47 17H46V18H47V17Z" fill="#555566"/>
<path id="Vector_63" d="M48 17H47V18H48V17Z" fill="#555566"/>
<path id="Vector_64" d="M15 18H14V19H15V18Z" fill="#555566"/>
<path id="Vector_65" d="M16 18H15V19H16V18Z" fill="#555566"/>
<path id="Vector_66" d="M46 18H45V19H46V18Z" fill="#555566"/>
<path id="Vector_67" d="M47 18H46V19H47V18Z" fill="#555566"/>
<path id="Vector_68" d="M48 18H47V19H48V18Z" fill="#555566"/>
<path id="Vector_69" d="M15 19H14V20H15V19Z" fill="#555566"/>
<path id="Vector_70" d="M16 19H15V20H16V19Z" fill="#555566"/>
<path id="Vector_71" d="M47 19H46V20H47V19Z" fill="#555566"/>
<path id="Vector_72" d="M48 19H47V20H48V19Z" fill="#555566"/>
<path id="Vector_73" d="M15 20H14V21H15V20Z" fill="#555566"/>
<path id="Vector_74" d="M16 20H15V21H16V20Z" fill="#555566"/>
<path id="Vector_75" d="M47 20H46V21H47V20Z" fill="#555566"/>
<path id="Vector_76" d="M48 20H47V21H48V20Z" fill="#555566"/>
<path id="Vector_77" d="M15 21H14V22H15V21Z" fill="#555566"/>
<path id="Vector_78" d="M16 21H15V22H16V21Z" fill="#555566"/>
<path id="Vector_79" d="M47 21H46V22H47V21Z" fill="#555566"/>
<path id="Vector_80" d="M48 21H47V22H48V21Z" fill="#555566"/>
<path id="Vector_81" d="M15 22H14V23H15V22Z" fill="#555566"/>
<path id="Vector_82" d="M16 22H15V23H16V22Z" fill="#555566"/>
<path id="Vector_83" d="M47 22H46V23H47V22Z" fill="#555566"/>
<path id="Vector_84" d="M48 22H47V23H48V22Z" fill="#555566"/>
<path id="Vector_85" d="M14 23H13V24H14V23Z" fill="#555566"/>
<path id="Vector_86" d="M15 23H14V24H15V23Z" fill="#555566"/>
<path id="Vector_87" d="M47 23H46V24H47V23Z" fill="#555566"/>
<path id="Vector_88" d="M48 23H47V24H48V23Z" fill="#555566"/>
<path id="Vector_89" d="M14 24H13V25H14V24Z" fill="#555566"/>
<path id="Vector_90" d="M15 24H14V25H15V24Z" fill="#555566"/>
<path id="Vector_91" d="M47 24H46V25H47V24Z" fill="#555566"/>
<path id="Vector_92" d="M48 24H47V25H48V24Z" fill="#555566"/>
<path id="Vector_93" d="M14 25H13V26H14V25Z" fill="#555566"/>
<path id="Vector_94" d="M15 25H14V26H15V25Z" fill="#555566"/>
<path id="Vector_95" d="M46 25H45V26H46V25Z" fill="#555566"/>
<path id="Vector_96" d="M47 25H46V26H47V25Z" fill="#555566"/>
<path id="Vector_97" d="M48 25H47V26H48V25Z" fill="#555566"/>
<path id="Vector_98" d="M14 26H13V27H14V26Z" fill="#555566"/>
<path id="Vector_99" d="M15 26H14V27H15V26Z" fill="#555566"/>
<path id="Vector_100" d="M46 26H45V27H46V26Z" fill="#555566"/>
<path id="Vector_101" d="M47 26H46V27H47V26Z" fill="#555566"/>
<path id="Vector_102" d="M14 27H13V28H14V27Z" fill="#555566"/>
<path id="Vector_103" d="M15 27H14V28H15V27Z" fill="#555566"/>
<path id="Vector_104" d="M46 27H45V28H46V27Z" fill="#555566"/>
<path id="Vector_105" d="M47 27H46V28H47V27Z" fill="#555566"/>
<path id="Vector_106" d="M14 28H13V29H14V28Z" fill="#555566"/>
<path id="Vector_107" d="M15 28H14V29H15V28Z" fill="#555566"/>
<path id="Vector_108" d="M16 28H15V29H16V28Z" fill="#555566"/>
<path id="Vector_109" d="M45 28H44V29H45V28Z" fill="#555566"/>
<path id="Vector_110" d="M46 28H45V29H46V28Z" fill="#555566"/>
<path id="Vector_111" d="M15 29H14V30H15V29Z" fill="#555566"/>
<path id="Vector_112" d="M16 29H15V30H16V29Z" fill="#555566"/>
<path id="Vector_113" d="M45 29H44V30H45V29Z" fill="#555566"/>
<path id="Vector_114" d="M15 30H14V31H15V30Z" fill="#555566"/>
<path id="Vector_115" d="M16 30H15V31H16V30Z" fill="#555566"/>
<path id="Vector_116" d="M17 30H16V31H17V30Z" fill="#555566"/>
<path id="Vector_117" d="M44 30H43V31H44V30Z" fill="#555566"/>
<path id="Vector_118" d="M45 30H44V31H45V30Z" fill="#555566"/>
<path id="Vector_119" d="M15 31H14V32H15V31Z" fill="#555566"/>
<path id="Vector_120" d="M16 31H15V32H16V31Z" fill="#555566"/>
<path id="Vector_121" d="M17 31H16V32H17V31Z" fill="#555566"/>
<path id="Vector_122" d="M18 31H17V32H18V31Z" fill="#555566"/>
<path id="Vector_123" d="M43 31H42V32H43V31Z" fill="#555566"/>
<path id="Vector_124" d="M44 31H43V32H44V31Z" fill="#555566"/>
<path id="Vector_125" d="M16 32H15V33H16V32Z" fill="#555566"/>
<path id="Vector_126" d="M17 32H16V33H17V32Z" fill="#555566"/>
<path id="Vector_127" d="M18 32H17V33H18V32Z" fill="#555566"/>
<path id="Vector_128" d="M41 32H40V33H41V32Z" fill="#555566"/>
<path id="Vector_129" d="M42 32H41V33H42V32Z" fill="#555566"/>
<path id="Vector_130" d="M43 32H42V33H43V32Z" fill="#555566"/>
<path id="Vector_131" d="M17 33H16V34H17V33Z" fill="#555566"/>
<path id="Vector_132" d="M18 33H17V34H18V33Z" fill="#555566"/>
<path id="Vector_133" d="M19 33H18V34H19V33Z" fill="#555566"/>
<path id="Vector_134" d="M38 33H37V34H38V33Z" fill="#555566"/>
<path id="Vector_135" d="M39 33H38V34H39V33Z" fill="#555566"/>
<path id="Vector_136" d="M40 33H39V34H40V33Z" fill="#555566"/>
<path id="Vector_137" d="M41 33H40V34H41V33Z" fill="#555566"/>
<path id="Vector_138" d="M42 33H41V34H42V33Z" fill="#555566"/>
<path id="Vector_139" d="M18 34H17V35H18V34Z" fill="#555566"/>
<path id="Vector_140" d="M19 34H18V35H19V34Z" fill="#555566"/>
<path id="Vector_141" d="M20 34H19V35H20V34Z" fill="#555566"/>
<path id="Vector_142" d="M35 34H34V35H35V34Z" fill="#555566"/>
<path id="Vector_143" d="M36 34H35V35H36V34Z" fill="#555566"/>
<path id="Vector_144" d="M37 34H36V35H37V34Z" fill="#555566"/>
<path id="Vector_145" d="M38 34H37V35H38V34Z" fill="#555566"/>
<path id="Vector_146" d="M39 34H38V35H39V34Z" fill="#555566"/>
<path id="Vector_147" d="M40 34H39V35H40V34Z" fill="#555566"/>
<path id="Vector_148" d="M19 35H18V36H19V35Z" fill="#555566"/>
<path id="Vector_149" d="M20 35H19V36H20V35Z" fill="#555566"/>
<path id="Vector_150" d="M21 35H20V36H21V35Z" fill="#555566"/>
<path id="Vector_151" d="M26 35H25V36H26V35Z" fill="#555566"/>
<path id="Vector_152" d="M27 35H26V36H27V35Z" fill="#555566"/>
<path id="Vector_153" d="M28 35H27V36H28V35Z" fill="#555566"/>
<path id="Vector_154" d="M29 35H28V36H29V35Z" fill="#555566"/>
<path id="Vector_155" d="M34 35H33V36H34V35Z" fill="#555566"/>
<path id="Vector_156" d="M35 35H34V36H35V35Z" fill="#555566"/>
<path id="Vector_157" d="M36 35H35V36H36V35Z" fill="#555566"/>
<path id="Vector_158" d="M37 35H36V36H37V35Z" fill="#555566"/>
<path id="Vector_159" d="M38 35H37V36H38V35Z" fill="#555566"/>
<path id="Vector_160" d="M19 36H18V37H19V36Z" fill="#555566"/>
<path id="Vector_161" d="M20 36H19V37H20V36Z" fill="#555566"/>
<path id="Vector_162" d="M21 36H20V37H21V36Z" fill="#555566"/>
<path id="Vector_163" d="M24 36H23V37H24V36Z" fill="#555566"/>
<path id="Vector_164" d="M25 36H24V37H25V36Z" fill="#555566"/>
<path id="Vector_165" d="M26 36H25V37H26V36Z" fill="#555566"/>
<path id="Vector_166" d="M27 36H26V37H27V36Z" fill="#555566"/>
<path id="Vector_167" d="M28 36H27V37H28V36Z" fill="#555566"/>
<path id="Vector_168" d="M29 36H28V37H29V36Z" fill="#555566"/>
<path id="Vector_169" d="M30 36H29V37H30V36Z" fill="#555566"/>
<path id="Vector_170" d="M33 36H32V37H33V36Z" fill="#555566"/>
<path id="Vector_171" d="M34 36H33V37H34V36Z" fill="#555566"/>
<path id="Vector_172" d="M35 36H34V37H35V36Z" fill="#555566"/>
<path id="Vector_173" d="M36 36H35V37H36V36Z" fill="#555566"/>
<path id="Vector_174" d="M20 37H19V38H20V37Z" fill="#555566"/>
<path id="Vector_175" d="M21 37H20V38H21V37Z" fill="#555566"/>
<path id="Vector_176" d="M22 37H21V38H22V37Z" fill="#555566"/>
<path id="Vector_177" d="M23 37H22V38H23V37Z" fill="#555566"/>
<path id="Vector_178" d="M24 37H23V38H24V37Z" fill="#555566"/>
<path id="Vector_179" d="M25 37H24V38H25V37Z" fill="#555566"/>
<path id="Vector_180" d="M26 37H25V38H26V37Z" fill="#555566"/>
<path id="Vector_181" d="M27 37H26V38H27V37Z" fill="#555566"/>
<path id="Vector_182" d="M28 37H27V38H28V37Z" fill="#555566"/>
<path id="Vector_183" d="M29 37H28V38H29V37Z" fill="#555566"/>
<path id="Vector_184" d="M30 37H29V38H30V37Z" fill="#555566"/>
<path id="Vector_185" d="M31 37H30V38H31V37Z" fill="#555566"/>
<path id="Vector_186" d="M32 37H31V38H32V37Z" fill="#555566"/>
<path id="Vector_187" d="M33 37H32V38H33V37Z" fill="#555566"/>
<path id="Vector_188" d="M34 37H33V38H34V37Z" fill="#555566"/>
<path id="Vector_189" d="M35 37H34V38H35V37Z" fill="#555566"/>
<path id="Vector_190" d="M36 37H35V38H36V37Z" fill="#555566"/>
<path id="Vector_191" d="M20 38H19V39H20V38Z" fill="#555566"/>
<path id="Vector_192" d="M21 38H20V39H21V38Z" fill="#555566"/>
<path id="Vector_193" d="M22 38H21V39H22V38Z" fill="#555566"/>
<path id="Vector_194" d="M23 38H22V39H23V38Z" fill="#555566"/>
<path id="Vector_195" d="M24 38H23V39H24V38Z" fill="#555566"/>
<path id="Vector_196" d="M25 38H24V39H25V38Z" fill="#555566"/>
<path id="Vector_197" d="M26 38H25V39H26V38Z" fill="#555566"/>
<path id="Vector_198" d="M27 38H26V39H27V38Z" fill="#555566"/>
<path id="Vector_199" d="M28 38H27V39H28V38Z" fill="#555566"/>
<path id="Vector_200" d="M29 38H28V39H29V38Z" fill="#555566"/>
<path id="Vector_201" d="M30 38H29V39H30V38Z" fill="#555566"/>
<path id="Vector_202" d="M31 38H30V39H31V38Z" fill="#555566"/>
<path id="Vector_203" d="M32 38H31V39H32V38Z" fill="#555566"/>
<path id="Vector_204" d="M33 38H32V39H33V38Z" fill="#555566"/>
<path id="Vector_205" d="M34 38H33V39H34V38Z" fill="#555566"/>
<path id="Vector_206" d="M20 39H19V40H20V39Z" fill="#555566"/>
<path id="Vector_207" d="M21 39H20V40H21V39Z" fill="#555566"/>
<path id="Vector_208" d="M22 39H21V40H22V39Z" fill="#555566"/>
<path id="Vector_209" d="M23 39H22V40H23V39Z" fill="#555566"/>
<path id="Vector_210" d="M24 39H23V40H24V39Z" fill="#555566"/>
<path id="Vector_211" d="M25 39H24V40H25V39Z" fill="#555566"/>
<path id="Vector_212" d="M26 39H25V40H26V39Z" fill="#555566"/>
<path id="Vector_213" d="M27 39H26V40H27V39Z" fill="#555566"/>
<path id="Vector_214" d="M28 39H27V40H28V39Z" fill="#555566"/>
<path id="Vector_215" d="M29 39H28V40H29V39Z" fill="#555566"/>
<path id="Vector_216" d="M30 39H29V40H30V39Z" fill="#555566"/>
<path id="Vector_217" d="M31 39H30V40H31V39Z" fill="#555566"/>
<path id="Vector_218" d="M32 39H31V40H32V39Z" fill="#555566"/>
<path id="Vector_219" d="M33 39H32V40H33V39Z" fill="#555566"/>
<path id="Vector_220" d="M21 40H20V41H21V40Z" fill="#555566"/>
<path id="Vector_221" d="M22 40H21V41H22V40Z" fill="#555566"/>
<path id="Vector_222" d="M23 40H22V41H23V40Z" fill="#555566"/>
<path id="Vector_223" d="M24 40H23V41H24V40Z" fill="#555566"/>
<path id="Vector_224" d="M25 40H24V41H25V40Z" fill="#555566"/>
<path id="Vector_225" d="M26 40H25V41H26V40Z" fill="#555566"/>
<path id="Vector_226" d="M27 40H26V41H27V40Z" fill="#555566"/>
<path id="Vector_227" d="M28 40H27V41H28V40Z" fill="#555566"/>
<path id="Vector_228" d="M29 40H28V41H29V40Z" fill="#555566"/>
<path id="Vector_229" d="M30 40H29V41H30V40Z" fill="#555566"/>
<path id="Vector_230" d="M31 40H30V41H31V40Z" fill="#555566"/>
<path id="Vector_231" d="M32 40H31V41H32V40Z" fill="#555566"/>
<path id="Vector_232" d="M33 40H32V41H33V40Z" fill="#555566"/>
<path id="Vector_233" d="M21 41H20V42H21V41Z" fill="#555566"/>
<path id="Vector_234" d="M22 41H21V42H22V41Z" fill="#555566"/>
<path id="Vector_235" d="M23 41H22V42H23V41Z" fill="#555566"/>
<path id="Vector_236" d="M24 41H23V42H24V41Z" fill="#555566"/>
<path id="Vector_237" d="M25 41H24V42H25V41Z" fill="#555566"/>
<path id="Vector_238" d="M26 41H25V42H26V41Z" fill="#555566"/>
<path id="Vector_239" d="M27 41H26V42H27V41Z" fill="#555566"/>
<path id="Vector_240" d="M28 41H27V42H28V41Z" fill="#555566"/>
<path id="Vector_241" d="M29 41H28V42H29V41Z" fill="#555566"/>
<path id="Vector_242" d="M30 41H29V42H30V41Z" fill="#555566"/>
<path id="Vector_243" d="M31 41H30V42H31V41Z" fill="#555566"/>
<path id="Vector_244" d="M32 41H31V42H32V41Z" fill="#555566"/>
<path id="Vector_245" d="M33 41H32V42H33V41Z" fill="#555566"/>
<path id="Vector_246" d="M21 42H20V43H21V42Z" fill="#555566"/>
<path id="Vector_247" d="M22 42H21V43H22V42Z" fill="#555566"/>
<path id="Vector_248" d="M23 42H22V43H23V42Z" fill="#555566"/>
<path id="Vector_249" d="M24 42H23V43H24V42Z" fill="#555566"/>
<path id="Vector_250" d="M25 42H24V43H25V42Z" fill="#555566"/>
<path id="Vector_251" d="M26 42H25V43H26V42Z" fill="#555566"/>
<path id="Vector_252" d="M27 42H26V43H27V42Z" fill="#555566"/>
<path id="Vector_253" d="M28 42H27V43H28V42Z" fill="#555566"/>
<path id="Vector_254" d="M29 42H28V43H29V42Z" fill="#555566"/>
<path id="Vector_255" d="M30 42H29V43H30V42Z" fill="#555566"/>
<path id="Vector_256" d="M31 42H30V43H31V42Z" fill="#555566"/>
<path id="Vector_257" d="M32 42H31V43H32V42Z" fill="#555566"/>
<path id="Vector_258" d="M33 42H32V43H33V42Z" fill="#555566"/>
<path id="Vector_259" d="M22 43H21V44H22V43Z" fill="#555566"/>
<path id="Vector_260" d="M23 43H22V44H23V43Z" fill="#555566"/>
<path id="Vector_261" d="M24 43H23V44H24V43Z" fill="#555566"/>
<path id="Vector_262" d="M25 43H24V44H25V43Z" fill="#555566"/>
<path id="Vector_263" d="M26 43H25V44H26V43Z" fill="#555566"/>
<path id="Vector_264" d="M27 43H26V44H27V43Z" fill="#555566"/>
<path id="Vector_265" d="M28 43H27V44H28V43Z" fill="#555566"/>
<path id="Vector_266" d="M29 43H28V44H29V43Z" fill="#555566"/>
<path id="Vector_267" d="M30 43H29V44H30V43Z" fill="#555566"/>
<path id="Vector_268" d="M31 43H30V44H31V43Z" fill="#555566"/>
<path id="Vector_269" d="M32 43H31V44H32V43Z" fill="#555566"/>
<path id="Vector_270" d="M22 44H21V45H22V44Z" fill="#555566"/>
<path id="Vector_271" d="M23 44H22V45H23V44Z" fill="#555566"/>
<path id="Vector_272" d="M24 44H23V45H24V44Z" fill="#555566"/>
<path id="Vector_273" d="M25 44H24V45H25V44Z" fill="#555566"/>
<path id="Vector_274" d="M26 44H25V45H26V44Z" fill="#555566"/>
<path id="Vector_275" d="M27 44H26V45H27V44Z" fill="#555566"/>
<path id="Vector_276" d="M28 44H27V45H28V44Z" fill="#555566"/>
<path id="Vector_277" d="M29 44H28V45H29V44Z" fill="#555566"/>
<path id="Vector_278" d="M30 44H29V45H30V44Z" fill="#555566"/>
<path id="Vector_279" d="M31 44H30V45H31V44Z" fill="#555566"/>
<path id="Vector_280" d="M32 44H31V45H32V44Z" fill="#555566"/>
<path id="Vector_281" d="M22 45H21V46H22V45Z" fill="#555566"/>
<path id="Vector_282" d="M23 45H22V46H23V45Z" fill="#555566"/>
<path id="Vector_283" d="M24 45H23V46H24V45Z" fill="#555566"/>
<path id="Vector_284" d="M25 45H24V46H25V45Z" fill="#555566"/>
<path id="Vector_285" d="M26 45H25V46H26V45Z" fill="#555566"/>
<path id="Vector_286" d="M27 45H26V46H27V45Z" fill="#555566"/>
<path id="Vector_287" d="M28 45H27V46H28V45Z" fill="#555566"/>
<path id="Vector_288" d="M29 45H28V46H29V45Z" fill="#555566"/>
<path id="Vector_289" d="M30 45H29V46H30V45Z" fill="#555566"/>
<path id="Vector_290" d="M31 45H30V46H31V45Z" fill="#555566"/>
<path id="Vector_291" d="M32 45H31V46H32V45Z" fill="#555566"/>
<path id="Vector_292" d="M22 46H21V47H22V46Z" fill="#555566"/>
<path id="Vector_293" d="M23 46H22V47H23V46Z" fill="#555566"/>
<path id="Vector_294" d="M24 46H23V47H24V46Z" fill="#555566"/>
<path id="Vector_295" d="M25 46H24V47H25V46Z" fill="#555566"/>
<path id="Vector_296" d="M26 46H25V47H26V46Z" fill="#555566"/>
<path id="Vector_297" d="M27 46H26V47H27V46Z" fill="#555566"/>
<path id="Vector_298" d="M28 46H27V47H28V46Z" fill="#555566"/>
<path id="Vector_299" d="M29 46H28V47H29V46Z" fill="#555566"/>
<path id="Vector_300" d="M30 46H29V47H30V46Z" fill="#555566"/>
<path id="Vector_301" d="M31 46H30V47H31V46Z" fill="#555566"/>
<path id="Vector_302" d="M32 46H31V47H32V46Z" fill="#555566"/>
<path id="Vector_303" d="M22 47H21V48H22V47Z" fill="#555566"/>
<path id="Vector_304" d="M23 47H22V48H23V47Z" fill="#555566"/>
<path id="Vector_305" d="M24 47H23V48H24V47Z" fill="#555566"/>
<path id="Vector_306" d="M25 47H24V48H25V47Z" fill="#555566"/>
<path id="Vector_307" d="M26 47H25V48H26V47Z" fill="#555566"/>
<path id="Vector_308" d="M27 47H26V48H27V47Z" fill="#555566"/>
<path id="Vector_309" d="M28 47H27V48H28V47Z" fill="#555566"/>
<path id="Vector_310" d="M29 47H28V48H29V47Z" fill="#555566"/>
<path id="Vector_311" d="M30 47H29V48H30V47Z" fill="#555566"/>
<path id="Vector_312" d="M31 47H30V48H31V47Z" fill="#555566"/>
<path id="Vector_313" d="M32 47H31V48H32V47Z" fill="#555566"/>
<path id="Vector_314" d="M23 48H22V49H23V48Z" fill="#555566"/>
<path id="Vector_315" d="M24 48H23V49H24V48Z" fill="#555566"/>
<path id="Vector_316" d="M25 48H24V49H25V48Z" fill="#555566"/>
<path id="Vector_317" d="M26 48H25V49H26V48Z" fill="#555566"/>
<path id="Vector_318" d="M27 48H26V49H27V48Z" fill="#555566"/>
<path id="Vector_319" d="M28 48H27V49H28V48Z" fill="#555566"/>
<path id="Vector_320" d="M29 48H28V49H29V48Z" fill="#555566"/>
<path id="Vector_321" d="M30 48H29V49H30V48Z" fill="#555566"/>
<path id="Vector_322" d="M31 48H30V49H31V48Z" fill="#555566"/>
<path id="Vector_323" d="M24 49H23V50H24V49Z" fill="#555566"/>
<path id="Vector_324" d="M25 49H24V50H25V49Z" fill="#555566"/>
<path id="Vector_325" d="M26 49H25V50H26V49Z" fill="#555566"/>
<path id="Vector_326" d="M27 49H26V50H27V49Z" fill="#555566"/>
<path id="Vector_327" d="M28 49H27V50H28V49Z" fill="#555566"/>
<path id="Vector_328" d="M29 49H28V50H29V49Z" fill="#555566"/>
<path id="Vector_329" d="M30 49H29V50H30V49Z" fill="#555566"/>
<path id="Vector_330" d="M25 50H24V51H25V50Z" fill="#555566"/>
<path id="Vector_331" d="M26 50H25V51H26V50Z" fill="#555566"/>
<path id="Vector_332" d="M27 50H26V51H27V50Z" fill="#555566"/>
<path id="Vector_333" d="M28 50H27V51H28V50Z" fill="#555566"/>
<path id="Vector_334" d="M29 50H28V51H29V50Z" fill="#555566"/>
<path id="Vector_335" d="M26 51H25V52H26V51Z" fill="#555566"/>
<path id="Vector_336" d="M27 51H26V52H27V51Z" fill="#555566"/>
<path id="Vector_337" d="M28 51H27V52H28V51Z" fill="#555566"/>
</g>
</svg>
